<mxfile host="app.diagrams.net" modified="2021-03-05T18:36:20.302Z" agent="5.0 (Windows NT 10.0; Win64; x64) AppleWebKit/537.36 (KHTML, like Gecko) Chrome/88.0.4324.150 Safari/537.36" etag="IIfj3VRqlNTc8008eaFI" version="14.4.4" type="github">
  <diagram id="svGD0Zl9XuY4tjJWS1zV" name="Page-1">
    <mxGraphModel dx="2512" dy="762" grid="1" gridSize="10" guides="0" tooltips="1" connect="0" arrows="0" fold="1" page="1" pageScale="1" pageWidth="850" pageHeight="1100" background="#114B5F" math="0" shadow="1">
      <root>
        <mxCell id="0" />
        <mxCell id="1" parent="0" />
        <mxCell id="pqWbWPmqw7E1unRh8ar--252" value="RASPPI" style="whiteSpace=wrap;html=1;fillColor=#F45B69;strokeColor=#028090;fontColor=#E4FDE1;sketch=1;" parent="1" vertex="1">
          <mxGeometry x="300" y="500" width="80" height="30" as="geometry" />
        </mxCell>
        <mxCell id="pqWbWPmqw7E1unRh8ar--253" value="GPIO" style="whiteSpace=wrap;html=1;fillColor=#F45B69;strokeColor=#028090;fontColor=#E4FDE1;sketch=1;" parent="1" vertex="1">
          <mxGeometry x="642" y="548" width="80" height="30" as="geometry" />
        </mxCell>
        <mxCell id="pqWbWPmqw7E1unRh8ar--254" value="" style="noEdgeStyle=1;strokeColor=#028090;fontColor=#E4FDE1;sketch=1;labelBackgroundColor=#114B5F;" parent="1" source="v3TkLxO8rTcV8y7XoOtQ-1" target="pqWbWPmqw7E1unRh8ar--253" edge="1">
          <mxGeometry x="-6753" y="-397" as="geometry" />
        </mxCell>
        <mxCell id="pqWbWPmqw7E1unRh8ar--255" value="1PIN" style="whiteSpace=wrap;html=1;fillColor=#F45B69;strokeColor=#028090;fontColor=#E4FDE1;sketch=1;" parent="1" vertex="1">
          <mxGeometry x="690" y="1390" width="80" height="30" as="geometry" />
        </mxCell>
        <mxCell id="pqWbWPmqw7E1unRh8ar--256" value="3V3POWER" style="whiteSpace=wrap;html=1;fillColor=#F45B69;strokeColor=#028090;fontColor=#E4FDE1;sketch=1;" parent="1" vertex="1">
          <mxGeometry x="902" y="468" width="80" height="30" as="geometry" />
        </mxCell>
        <mxCell id="pqWbWPmqw7E1unRh8ar--257" value="" style="noEdgeStyle=1;strokeColor=#028090;fontColor=#E4FDE1;sketch=1;labelBackgroundColor=#114B5F;" parent="1" source="pqWbWPmqw7E1unRh8ar--255" target="pqWbWPmqw7E1unRh8ar--256" edge="1">
          <mxGeometry x="-6753" y="-397" as="geometry" />
        </mxCell>
        <mxCell id="pqWbWPmqw7E1unRh8ar--258" value="3PIN" style="whiteSpace=wrap;html=1;fillColor=#F45B69;strokeColor=#028090;fontColor=#E4FDE1;sketch=1;" parent="1" vertex="1">
          <mxGeometry x="820" y="1280" width="80" height="30" as="geometry" />
        </mxCell>
        <mxCell id="pqWbWPmqw7E1unRh8ar--259" value="GPIO2(I2C1SDA)" style="whiteSpace=wrap;html=1;fillColor=#F45B69;strokeColor=#028090;fontColor=#E4FDE1;sketch=1;" parent="1" vertex="1">
          <mxGeometry x="462" y="968" width="110" height="30" as="geometry" />
        </mxCell>
        <mxCell id="pqWbWPmqw7E1unRh8ar--260" value="" style="noEdgeStyle=1;strokeColor=#028090;fontColor=#E4FDE1;sketch=1;labelBackgroundColor=#114B5F;" parent="1" source="pqWbWPmqw7E1unRh8ar--258" target="pqWbWPmqw7E1unRh8ar--259" edge="1">
          <mxGeometry x="-6753" y="-397" as="geometry" />
        </mxCell>
        <mxCell id="pqWbWPmqw7E1unRh8ar--261" value="5PIN" style="whiteSpace=wrap;html=1;fillColor=#F45B69;strokeColor=#028090;fontColor=#E4FDE1;sketch=1;" parent="1" vertex="1">
          <mxGeometry x="410" y="1560" width="80" height="30" as="geometry" />
        </mxCell>
        <mxCell id="pqWbWPmqw7E1unRh8ar--262" value="GPIO3(I2C1SCL)" style="whiteSpace=wrap;html=1;fillColor=#F45B69;strokeColor=#028090;fontColor=#E4FDE1;sketch=1;" parent="1" vertex="1">
          <mxGeometry x="322" y="108" width="110" height="30" as="geometry" />
        </mxCell>
        <mxCell id="pqWbWPmqw7E1unRh8ar--263" value="" style="noEdgeStyle=1;strokeColor=#028090;fontColor=#E4FDE1;sketch=1;labelBackgroundColor=#114B5F;" parent="1" source="pqWbWPmqw7E1unRh8ar--261" target="pqWbWPmqw7E1unRh8ar--262" edge="1">
          <mxGeometry x="-6753" y="-397" as="geometry" />
        </mxCell>
        <mxCell id="pqWbWPmqw7E1unRh8ar--264" value="7PIN" style="whiteSpace=wrap;html=1;fillColor=#F45B69;strokeColor=#028090;fontColor=#E4FDE1;sketch=1;" parent="1" vertex="1">
          <mxGeometry x="792" y="738" width="80" height="30" as="geometry" />
        </mxCell>
        <mxCell id="pqWbWPmqw7E1unRh8ar--265" value="GPIO4(GPCLK0)" style="whiteSpace=wrap;html=1;fillColor=#F45B69;strokeColor=#028090;fontColor=#E4FDE1;sketch=1;" parent="1" vertex="1">
          <mxGeometry x="912" y="898" width="110" height="30" as="geometry" />
        </mxCell>
        <mxCell id="pqWbWPmqw7E1unRh8ar--266" value="" style="noEdgeStyle=1;strokeColor=#028090;fontColor=#E4FDE1;sketch=1;labelBackgroundColor=#114B5F;" parent="1" source="pqWbWPmqw7E1unRh8ar--264" target="pqWbWPmqw7E1unRh8ar--265" edge="1">
          <mxGeometry x="-6753" y="-397" as="geometry" />
        </mxCell>
        <mxCell id="pqWbWPmqw7E1unRh8ar--267" value="9PIN" style="whiteSpace=wrap;html=1;fillColor=#F45B69;strokeColor=#028090;fontColor=#E4FDE1;sketch=1;" parent="1" vertex="1">
          <mxGeometry x="742" y="608" width="80" height="30" as="geometry" />
        </mxCell>
        <mxCell id="pqWbWPmqw7E1unRh8ar--268" value="GROUND" style="whiteSpace=wrap;html=1;fillColor=#F45B69;strokeColor=#028090;fontColor=#E4FDE1;sketch=1;" parent="1" vertex="1">
          <mxGeometry x="290" y="810" width="80" height="30" as="geometry" />
        </mxCell>
        <mxCell id="pqWbWPmqw7E1unRh8ar--269" value="" style="noEdgeStyle=1;strokeColor=#028090;fontColor=#E4FDE1;sketch=1;labelBackgroundColor=#114B5F;" parent="1" source="pqWbWPmqw7E1unRh8ar--267" target="pqWbWPmqw7E1unRh8ar--268" edge="1">
          <mxGeometry x="-6753" y="-397" as="geometry" />
        </mxCell>
        <mxCell id="pqWbWPmqw7E1unRh8ar--270" value="11PIN" style="whiteSpace=wrap;html=1;fillColor=#F45B69;strokeColor=#028090;fontColor=#E4FDE1;sketch=1;" parent="1" vertex="1">
          <mxGeometry x="912" y="578" width="80" height="30" as="geometry" />
        </mxCell>
        <mxCell id="pqWbWPmqw7E1unRh8ar--271" value="GPIO17" style="whiteSpace=wrap;html=1;fillColor=#F45B69;strokeColor=#028090;fontColor=#E4FDE1;sketch=1;" parent="1" vertex="1">
          <mxGeometry x="1112" y="588" width="80" height="30" as="geometry" />
        </mxCell>
        <mxCell id="pqWbWPmqw7E1unRh8ar--272" value="" style="noEdgeStyle=1;strokeColor=#028090;fontColor=#E4FDE1;sketch=1;labelBackgroundColor=#114B5F;" parent="1" source="pqWbWPmqw7E1unRh8ar--270" target="pqWbWPmqw7E1unRh8ar--271" edge="1">
          <mxGeometry x="-6753" y="-397" as="geometry" />
        </mxCell>
        <mxCell id="pqWbWPmqw7E1unRh8ar--273" value="13PIN" style="whiteSpace=wrap;html=1;fillColor=#F45B69;strokeColor=#028090;fontColor=#E4FDE1;sketch=1;" parent="1" vertex="1">
          <mxGeometry x="822" y="818" width="80" height="30" as="geometry" />
        </mxCell>
        <mxCell id="pqWbWPmqw7E1unRh8ar--274" value="GPIO27" style="whiteSpace=wrap;html=1;fillColor=#F45B69;strokeColor=#028090;fontColor=#E4FDE1;sketch=1;" parent="1" vertex="1">
          <mxGeometry x="942" y="998" width="80" height="30" as="geometry" />
        </mxCell>
        <mxCell id="pqWbWPmqw7E1unRh8ar--275" value="" style="noEdgeStyle=1;strokeColor=#028090;fontColor=#E4FDE1;sketch=1;labelBackgroundColor=#114B5F;" parent="1" source="pqWbWPmqw7E1unRh8ar--273" target="pqWbWPmqw7E1unRh8ar--274" edge="1">
          <mxGeometry x="-6753" y="-397" as="geometry" />
        </mxCell>
        <mxCell id="pqWbWPmqw7E1unRh8ar--276" value="15PIN" style="whiteSpace=wrap;html=1;fillColor=#F45B69;strokeColor=#028090;fontColor=#E4FDE1;sketch=1;" parent="1" vertex="1">
          <mxGeometry x="422" y="678" width="80" height="30" as="geometry" />
        </mxCell>
        <mxCell id="pqWbWPmqw7E1unRh8ar--277" value="GPIO22" style="whiteSpace=wrap;html=1;fillColor=#F45B69;strokeColor=#028090;fontColor=#E4FDE1;sketch=1;" parent="1" vertex="1">
          <mxGeometry x="272" y="758" width="80" height="30" as="geometry" />
        </mxCell>
        <mxCell id="pqWbWPmqw7E1unRh8ar--278" value="" style="noEdgeStyle=1;strokeColor=#028090;fontColor=#E4FDE1;sketch=1;labelBackgroundColor=#114B5F;" parent="1" source="pqWbWPmqw7E1unRh8ar--276" target="pqWbWPmqw7E1unRh8ar--277" edge="1">
          <mxGeometry x="-6753" y="-397" as="geometry" />
        </mxCell>
        <mxCell id="pqWbWPmqw7E1unRh8ar--279" value="17PIN" style="whiteSpace=wrap;html=1;fillColor=#F45B69;strokeColor=#028090;fontColor=#E4FDE1;sketch=1;" parent="1" vertex="1">
          <mxGeometry x="792" y="448" width="80" height="30" as="geometry" />
        </mxCell>
        <mxCell id="pqWbWPmqw7E1unRh8ar--280" value="" style="noEdgeStyle=1;strokeColor=#028090;fontColor=#E4FDE1;sketch=1;labelBackgroundColor=#114B5F;" parent="1" source="pqWbWPmqw7E1unRh8ar--279" target="pqWbWPmqw7E1unRh8ar--256" edge="1">
          <mxGeometry x="-6753" y="-397" as="geometry" />
        </mxCell>
        <mxCell id="pqWbWPmqw7E1unRh8ar--281" value="19PIN" style="whiteSpace=wrap;html=1;fillColor=#F45B69;strokeColor=#028090;fontColor=#E4FDE1;sketch=1;" parent="1" vertex="1">
          <mxGeometry x="532" y="338" width="80" height="30" as="geometry" />
        </mxCell>
        <mxCell id="pqWbWPmqw7E1unRh8ar--282" value="GPIO10(SPI0MOSI)" style="whiteSpace=wrap;html=1;fillColor=#F45B69;strokeColor=#028090;fontColor=#E4FDE1;sketch=1;" parent="1" vertex="1">
          <mxGeometry x="422" y="148" width="120" height="30" as="geometry" />
        </mxCell>
        <mxCell id="pqWbWPmqw7E1unRh8ar--283" value="" style="noEdgeStyle=1;strokeColor=#028090;fontColor=#E4FDE1;sketch=1;labelBackgroundColor=#114B5F;" parent="1" source="pqWbWPmqw7E1unRh8ar--281" target="pqWbWPmqw7E1unRh8ar--282" edge="1">
          <mxGeometry x="-6753" y="-397" as="geometry" />
        </mxCell>
        <mxCell id="pqWbWPmqw7E1unRh8ar--284" value="21PIN" style="whiteSpace=wrap;html=1;fillColor=#F45B69;strokeColor=#028090;fontColor=#E4FDE1;sketch=1;" parent="1" vertex="1">
          <mxGeometry x="602" y="848" width="80" height="30" as="geometry" />
        </mxCell>
        <mxCell id="pqWbWPmqw7E1unRh8ar--285" value="GPIO9(SPI0MISO)" style="whiteSpace=wrap;html=1;fillColor=#F45B69;strokeColor=#028090;fontColor=#E4FDE1;sketch=1;" parent="1" vertex="1">
          <mxGeometry x="572" y="1028" width="120" height="30" as="geometry" />
        </mxCell>
        <mxCell id="pqWbWPmqw7E1unRh8ar--286" value="" style="noEdgeStyle=1;strokeColor=#028090;fontColor=#E4FDE1;sketch=1;labelBackgroundColor=#114B5F;" parent="1" source="pqWbWPmqw7E1unRh8ar--284" target="pqWbWPmqw7E1unRh8ar--285" edge="1">
          <mxGeometry x="-6753" y="-397" as="geometry" />
        </mxCell>
        <mxCell id="pqWbWPmqw7E1unRh8ar--287" value="23PIN" style="whiteSpace=wrap;html=1;fillColor=#F45B69;strokeColor=#028090;fontColor=#E4FDE1;sketch=1;" parent="1" vertex="1">
          <mxGeometry x="892" y="358" width="80" height="30" as="geometry" />
        </mxCell>
        <mxCell id="pqWbWPmqw7E1unRh8ar--288" value="GPIO11(SPI0MISO)" style="whiteSpace=wrap;html=1;fillColor=#F45B69;strokeColor=#028090;fontColor=#E4FDE1;sketch=1;" parent="1" vertex="1">
          <mxGeometry x="1042" y="238" width="120" height="30" as="geometry" />
        </mxCell>
        <mxCell id="pqWbWPmqw7E1unRh8ar--289" value="" style="noEdgeStyle=1;strokeColor=#028090;fontColor=#E4FDE1;sketch=1;labelBackgroundColor=#114B5F;" parent="1" source="pqWbWPmqw7E1unRh8ar--287" target="pqWbWPmqw7E1unRh8ar--288" edge="1">
          <mxGeometry x="-6753" y="-397" as="geometry" />
        </mxCell>
        <mxCell id="pqWbWPmqw7E1unRh8ar--290" value="25PIN" style="whiteSpace=wrap;html=1;fillColor=#F45B69;strokeColor=#028090;fontColor=#E4FDE1;sketch=1;" parent="1" vertex="1">
          <mxGeometry x="612" y="708" width="80" height="30" as="geometry" />
        </mxCell>
        <mxCell id="pqWbWPmqw7E1unRh8ar--291" value="" style="noEdgeStyle=1;strokeColor=#028090;fontColor=#E4FDE1;sketch=1;labelBackgroundColor=#114B5F;" parent="1" source="pqWbWPmqw7E1unRh8ar--290" target="pqWbWPmqw7E1unRh8ar--268" edge="1">
          <mxGeometry x="-6753" y="-397" as="geometry" />
        </mxCell>
        <mxCell id="pqWbWPmqw7E1unRh8ar--292" value="27PIN" style="whiteSpace=wrap;html=1;fillColor=#F45B69;strokeColor=#028090;fontColor=#E4FDE1;sketch=1;" parent="1" vertex="1">
          <mxGeometry x="402" y="338" width="80" height="30" as="geometry" />
        </mxCell>
        <mxCell id="pqWbWPmqw7E1unRh8ar--293" value="GPIO0(EEPROMSDA)" style="whiteSpace=wrap;html=1;fillColor=#F45B69;strokeColor=#028090;fontColor=#E4FDE1;sketch=1;" parent="1" vertex="1">
          <mxGeometry x="202" y="198" width="140" height="30" as="geometry" />
        </mxCell>
        <mxCell id="pqWbWPmqw7E1unRh8ar--294" value="" style="noEdgeStyle=1;strokeColor=#028090;fontColor=#E4FDE1;sketch=1;labelBackgroundColor=#114B5F;" parent="1" source="pqWbWPmqw7E1unRh8ar--292" target="pqWbWPmqw7E1unRh8ar--293" edge="1">
          <mxGeometry x="-6753" y="-397" as="geometry" />
        </mxCell>
        <mxCell id="pqWbWPmqw7E1unRh8ar--295" value="29PIN" style="whiteSpace=wrap;html=1;fillColor=#F45B69;strokeColor=#028090;fontColor=#E4FDE1;sketch=1;" parent="1" vertex="1">
          <mxGeometry x="902" y="748" width="80" height="30" as="geometry" />
        </mxCell>
        <mxCell id="pqWbWPmqw7E1unRh8ar--296" value="GPIO5" style="whiteSpace=wrap;html=1;fillColor=#F45B69;strokeColor=#028090;fontColor=#E4FDE1;sketch=1;" parent="1" vertex="1">
          <mxGeometry x="1090" y="960" width="80" height="30" as="geometry" />
        </mxCell>
        <mxCell id="pqWbWPmqw7E1unRh8ar--297" value="" style="noEdgeStyle=1;strokeColor=#028090;fontColor=#E4FDE1;sketch=1;labelBackgroundColor=#114B5F;" parent="1" source="pqWbWPmqw7E1unRh8ar--295" target="pqWbWPmqw7E1unRh8ar--296" edge="1">
          <mxGeometry x="-6753" y="-397" as="geometry" />
        </mxCell>
        <mxCell id="pqWbWPmqw7E1unRh8ar--298" value="31PIN" style="whiteSpace=wrap;html=1;fillColor=#F45B69;strokeColor=#028090;fontColor=#E4FDE1;sketch=1;" parent="1" vertex="1">
          <mxGeometry x="452" y="418" width="80" height="30" as="geometry" />
        </mxCell>
        <mxCell id="pqWbWPmqw7E1unRh8ar--299" value="GPIO6" style="whiteSpace=wrap;html=1;fillColor=#F45B69;strokeColor=#028090;fontColor=#E4FDE1;sketch=1;" parent="1" vertex="1">
          <mxGeometry x="272" y="308" width="80" height="30" as="geometry" />
        </mxCell>
        <mxCell id="pqWbWPmqw7E1unRh8ar--300" value="" style="noEdgeStyle=1;strokeColor=#028090;fontColor=#E4FDE1;sketch=1;labelBackgroundColor=#114B5F;" parent="1" source="pqWbWPmqw7E1unRh8ar--298" target="pqWbWPmqw7E1unRh8ar--299" edge="1">
          <mxGeometry x="-6753" y="-397" as="geometry" />
        </mxCell>
        <mxCell id="pqWbWPmqw7E1unRh8ar--301" value="33PIN" style="whiteSpace=wrap;html=1;fillColor=#F45B69;strokeColor=#028090;fontColor=#E4FDE1;sketch=1;" parent="1" vertex="1">
          <mxGeometry x="962" y="418" width="80" height="30" as="geometry" />
        </mxCell>
        <mxCell id="pqWbWPmqw7E1unRh8ar--302" value="GPIO13(PWM1)" style="whiteSpace=wrap;html=1;fillColor=#F45B69;strokeColor=#028090;fontColor=#E4FDE1;sketch=1;" parent="1" vertex="1">
          <mxGeometry x="1142" y="338" width="100" height="30" as="geometry" />
        </mxCell>
        <mxCell id="pqWbWPmqw7E1unRh8ar--303" value="" style="noEdgeStyle=1;strokeColor=#028090;fontColor=#E4FDE1;sketch=1;labelBackgroundColor=#114B5F;" parent="1" source="pqWbWPmqw7E1unRh8ar--301" target="pqWbWPmqw7E1unRh8ar--302" edge="1">
          <mxGeometry x="-6753" y="-397" as="geometry" />
        </mxCell>
        <mxCell id="pqWbWPmqw7E1unRh8ar--304" value="35PIN" style="whiteSpace=wrap;html=1;fillColor=#F45B69;strokeColor=#028090;fontColor=#E4FDE1;sketch=1;" parent="1" vertex="1">
          <mxGeometry x="742" y="848" width="80" height="30" as="geometry" />
        </mxCell>
        <mxCell id="pqWbWPmqw7E1unRh8ar--305" value="GPIO19(PCMFS)" style="whiteSpace=wrap;html=1;fillColor=#F45B69;strokeColor=#028090;fontColor=#E4FDE1;sketch=1;" parent="1" vertex="1">
          <mxGeometry x="802" y="1038" width="110" height="30" as="geometry" />
        </mxCell>
        <mxCell id="pqWbWPmqw7E1unRh8ar--306" value="" style="noEdgeStyle=1;strokeColor=#028090;fontColor=#E4FDE1;sketch=1;labelBackgroundColor=#114B5F;" parent="1" source="pqWbWPmqw7E1unRh8ar--304" target="pqWbWPmqw7E1unRh8ar--305" edge="1">
          <mxGeometry x="-6753" y="-397" as="geometry" />
        </mxCell>
        <mxCell id="pqWbWPmqw7E1unRh8ar--307" value="37PIN" style="whiteSpace=wrap;html=1;fillColor=#F45B69;strokeColor=#028090;fontColor=#E4FDE1;sketch=1;" parent="1" vertex="1">
          <mxGeometry x="622" y="288" width="80" height="30" as="geometry" />
        </mxCell>
        <mxCell id="pqWbWPmqw7E1unRh8ar--308" value="GPIO26" style="whiteSpace=wrap;html=1;fillColor=#F45B69;strokeColor=#028090;fontColor=#E4FDE1;sketch=1;" parent="1" vertex="1">
          <mxGeometry x="612" y="78" width="80" height="30" as="geometry" />
        </mxCell>
        <mxCell id="pqWbWPmqw7E1unRh8ar--309" value="" style="noEdgeStyle=1;strokeColor=#028090;fontColor=#E4FDE1;sketch=1;labelBackgroundColor=#114B5F;" parent="1" source="pqWbWPmqw7E1unRh8ar--307" target="pqWbWPmqw7E1unRh8ar--308" edge="1">
          <mxGeometry x="-6753" y="-397" as="geometry" />
        </mxCell>
        <mxCell id="pqWbWPmqw7E1unRh8ar--310" value="39PIN" style="whiteSpace=wrap;html=1;fillColor=#F45B69;strokeColor=#028090;fontColor=#E4FDE1;sketch=1;" parent="1" vertex="1">
          <mxGeometry x="692" y="688" width="80" height="30" as="geometry" />
        </mxCell>
        <mxCell id="pqWbWPmqw7E1unRh8ar--311" value="" style="noEdgeStyle=1;strokeColor=#028090;fontColor=#E4FDE1;sketch=1;labelBackgroundColor=#114B5F;" parent="1" source="pqWbWPmqw7E1unRh8ar--310" target="pqWbWPmqw7E1unRh8ar--268" edge="1">
          <mxGeometry x="-6753" y="-397" as="geometry" />
        </mxCell>
        <mxCell id="pqWbWPmqw7E1unRh8ar--312" value="2PIN" style="whiteSpace=wrap;html=1;fillColor=#F45B69;strokeColor=#028090;fontColor=#E4FDE1;sketch=1;" parent="1" vertex="1">
          <mxGeometry x="660" y="1500" width="80" height="30" as="geometry" />
        </mxCell>
        <mxCell id="pqWbWPmqw7E1unRh8ar--313" value="5VPOWER" style="whiteSpace=wrap;html=1;fillColor=#F45B69;strokeColor=#028090;fontColor=#E4FDE1;sketch=1;" parent="1" vertex="1">
          <mxGeometry x="762" y="158" width="80" height="30" as="geometry" />
        </mxCell>
        <mxCell id="pqWbWPmqw7E1unRh8ar--314" value="" style="noEdgeStyle=1;strokeColor=#028090;fontColor=#E4FDE1;sketch=1;labelBackgroundColor=#114B5F;" parent="1" source="pqWbWPmqw7E1unRh8ar--312" target="pqWbWPmqw7E1unRh8ar--313" edge="1">
          <mxGeometry x="-6753" y="-397" as="geometry" />
        </mxCell>
        <mxCell id="pqWbWPmqw7E1unRh8ar--315" value="4PIN" style="whiteSpace=wrap;html=1;fillColor=#F45B69;strokeColor=#028090;fontColor=#E4FDE1;sketch=1;" parent="1" vertex="1">
          <mxGeometry x="560" y="1530" width="80" height="30" as="geometry" />
        </mxCell>
        <mxCell id="pqWbWPmqw7E1unRh8ar--316" value="" style="noEdgeStyle=1;strokeColor=#028090;fontColor=#E4FDE1;sketch=1;labelBackgroundColor=#114B5F;" parent="1" source="pqWbWPmqw7E1unRh8ar--315" target="pqWbWPmqw7E1unRh8ar--313" edge="1">
          <mxGeometry x="-6753" y="-397" as="geometry" />
        </mxCell>
        <mxCell id="pqWbWPmqw7E1unRh8ar--317" value="6PIN" style="whiteSpace=wrap;html=1;fillColor=#F45B69;strokeColor=#028090;fontColor=#E4FDE1;sketch=1;" parent="1" vertex="1">
          <mxGeometry x="900" y="1220" width="80" height="30" as="geometry" />
        </mxCell>
        <mxCell id="pqWbWPmqw7E1unRh8ar--318" value="" style="noEdgeStyle=1;strokeColor=#028090;fontColor=#E4FDE1;sketch=1;labelBackgroundColor=#114B5F;" parent="1" source="pqWbWPmqw7E1unRh8ar--317" target="pqWbWPmqw7E1unRh8ar--268" edge="1">
          <mxGeometry x="-6753" y="-397" as="geometry" />
        </mxCell>
        <mxCell id="pqWbWPmqw7E1unRh8ar--319" value="8PIN" style="whiteSpace=wrap;html=1;fillColor=#F45B69;strokeColor=#028090;fontColor=#E4FDE1;sketch=1;" parent="1" vertex="1">
          <mxGeometry x="672" y="798" width="80" height="30" as="geometry" />
        </mxCell>
        <mxCell id="pqWbWPmqw7E1unRh8ar--320" value="GPIO14(UARTTX)" style="whiteSpace=wrap;html=1;fillColor=#F45B69;strokeColor=#028090;fontColor=#E4FDE1;sketch=1;" parent="1" vertex="1">
          <mxGeometry x="692" y="988" width="110" height="30" as="geometry" />
        </mxCell>
        <mxCell id="pqWbWPmqw7E1unRh8ar--321" value="" style="noEdgeStyle=1;strokeColor=#028090;fontColor=#E4FDE1;sketch=1;labelBackgroundColor=#114B5F;" parent="1" source="pqWbWPmqw7E1unRh8ar--319" target="pqWbWPmqw7E1unRh8ar--320" edge="1">
          <mxGeometry x="-6753" y="-397" as="geometry" />
        </mxCell>
        <mxCell id="pqWbWPmqw7E1unRh8ar--322" value="10PIN" style="whiteSpace=wrap;html=1;fillColor=#F45B69;strokeColor=#028090;fontColor=#E4FDE1;sketch=1;" parent="1" vertex="1">
          <mxGeometry x="682" y="218" width="80" height="30" as="geometry" />
        </mxCell>
        <mxCell id="pqWbWPmqw7E1unRh8ar--323" value="GPIO15(UARTRX)" style="whiteSpace=wrap;html=1;fillColor=#F45B69;strokeColor=#028090;fontColor=#E4FDE1;sketch=1;" parent="1" vertex="1">
          <mxGeometry x="712" y="8" width="120" height="30" as="geometry" />
        </mxCell>
        <mxCell id="pqWbWPmqw7E1unRh8ar--324" value="" style="noEdgeStyle=1;strokeColor=#028090;fontColor=#E4FDE1;sketch=1;labelBackgroundColor=#114B5F;" parent="1" source="pqWbWPmqw7E1unRh8ar--322" target="pqWbWPmqw7E1unRh8ar--323" edge="1">
          <mxGeometry x="-6753" y="-397" as="geometry" />
        </mxCell>
        <mxCell id="pqWbWPmqw7E1unRh8ar--325" value="12PIN" style="whiteSpace=wrap;html=1;fillColor=#F45B69;strokeColor=#028090;fontColor=#E4FDE1;sketch=1;" parent="1" vertex="1">
          <mxGeometry x="812" y="348" width="80" height="30" as="geometry" />
        </mxCell>
        <mxCell id="pqWbWPmqw7E1unRh8ar--326" value="GPIO18(PCMCLK)" style="whiteSpace=wrap;html=1;fillColor=#F45B69;strokeColor=#028090;fontColor=#E4FDE1;sketch=1;" parent="1" vertex="1">
          <mxGeometry x="912" y="188" width="120" height="30" as="geometry" />
        </mxCell>
        <mxCell id="pqWbWPmqw7E1unRh8ar--327" value="" style="noEdgeStyle=1;strokeColor=#028090;fontColor=#E4FDE1;sketch=1;labelBackgroundColor=#114B5F;" parent="1" source="pqWbWPmqw7E1unRh8ar--325" target="pqWbWPmqw7E1unRh8ar--326" edge="1">
          <mxGeometry x="-6753" y="-397" as="geometry" />
        </mxCell>
        <mxCell id="pqWbWPmqw7E1unRh8ar--328" value="14PIN" style="whiteSpace=wrap;html=1;fillColor=#F45B69;strokeColor=#028090;fontColor=#E4FDE1;sketch=1;" parent="1" vertex="1">
          <mxGeometry x="502" y="588" width="80" height="30" as="geometry" />
        </mxCell>
        <mxCell id="pqWbWPmqw7E1unRh8ar--329" value="" style="noEdgeStyle=1;strokeColor=#028090;fontColor=#E4FDE1;sketch=1;labelBackgroundColor=#114B5F;" parent="1" source="pqWbWPmqw7E1unRh8ar--328" target="pqWbWPmqw7E1unRh8ar--268" edge="1">
          <mxGeometry x="-6753" y="-397" as="geometry" />
        </mxCell>
        <mxCell id="pqWbWPmqw7E1unRh8ar--330" value="16PIN" style="whiteSpace=wrap;html=1;fillColor=#F45B69;strokeColor=#028090;fontColor=#E4FDE1;sketch=1;" parent="1" vertex="1">
          <mxGeometry x="962" y="648" width="80" height="30" as="geometry" />
        </mxCell>
        <mxCell id="pqWbWPmqw7E1unRh8ar--331" value="GPIO23" style="whiteSpace=wrap;html=1;fillColor=#F45B69;strokeColor=#028090;fontColor=#E4FDE1;sketch=1;" parent="1" vertex="1">
          <mxGeometry x="1172" y="698" width="80" height="30" as="geometry" />
        </mxCell>
        <mxCell id="pqWbWPmqw7E1unRh8ar--332" value="" style="noEdgeStyle=1;strokeColor=#028090;fontColor=#E4FDE1;sketch=1;labelBackgroundColor=#114B5F;" parent="1" source="pqWbWPmqw7E1unRh8ar--330" target="pqWbWPmqw7E1unRh8ar--331" edge="1">
          <mxGeometry x="-6753" y="-397" as="geometry" />
        </mxCell>
        <mxCell id="pqWbWPmqw7E1unRh8ar--333" value="18PIN" style="whiteSpace=wrap;html=1;fillColor=#F45B69;strokeColor=#028090;fontColor=#E4FDE1;sketch=1;" parent="1" vertex="1">
          <mxGeometry x="832" y="268" width="80" height="30" as="geometry" />
        </mxCell>
        <mxCell id="pqWbWPmqw7E1unRh8ar--334" value="GPIO24" style="whiteSpace=wrap;html=1;fillColor=#F45B69;strokeColor=#028090;fontColor=#E4FDE1;sketch=1;" parent="1" vertex="1">
          <mxGeometry x="962" y="88" width="80" height="30" as="geometry" />
        </mxCell>
        <mxCell id="pqWbWPmqw7E1unRh8ar--335" value="" style="noEdgeStyle=1;strokeColor=#028090;fontColor=#E4FDE1;sketch=1;labelBackgroundColor=#114B5F;" parent="1" source="pqWbWPmqw7E1unRh8ar--333" target="pqWbWPmqw7E1unRh8ar--334" edge="1">
          <mxGeometry x="-6753" y="-397" as="geometry" />
        </mxCell>
        <mxCell id="pqWbWPmqw7E1unRh8ar--336" value="20PIN" style="whiteSpace=wrap;html=1;fillColor=#F45B69;strokeColor=#028090;fontColor=#E4FDE1;sketch=1;" parent="1" vertex="1">
          <mxGeometry x="542" y="668" width="80" height="30" as="geometry" />
        </mxCell>
        <mxCell id="pqWbWPmqw7E1unRh8ar--337" value="" style="noEdgeStyle=1;strokeColor=#028090;fontColor=#E4FDE1;sketch=1;labelBackgroundColor=#114B5F;" parent="1" source="pqWbWPmqw7E1unRh8ar--336" target="pqWbWPmqw7E1unRh8ar--268" edge="1">
          <mxGeometry x="-6753" y="-397" as="geometry" />
        </mxCell>
        <mxCell id="pqWbWPmqw7E1unRh8ar--338" value="22PIN" style="whiteSpace=wrap;html=1;fillColor=#F45B69;strokeColor=#028090;fontColor=#E4FDE1;sketch=1;" parent="1" vertex="1">
          <mxGeometry x="362" y="428" width="80" height="30" as="geometry" />
        </mxCell>
        <mxCell id="pqWbWPmqw7E1unRh8ar--339" value="GPIO25" style="whiteSpace=wrap;html=1;fillColor=#F45B69;strokeColor=#028090;fontColor=#E4FDE1;sketch=1;" parent="1" vertex="1">
          <mxGeometry x="162" y="338" width="80" height="30" as="geometry" />
        </mxCell>
        <mxCell id="pqWbWPmqw7E1unRh8ar--340" value="" style="noEdgeStyle=1;strokeColor=#028090;fontColor=#E4FDE1;sketch=1;labelBackgroundColor=#114B5F;" parent="1" source="pqWbWPmqw7E1unRh8ar--338" target="pqWbWPmqw7E1unRh8ar--339" edge="1">
          <mxGeometry x="-6753" y="-397" as="geometry" />
        </mxCell>
        <mxCell id="pqWbWPmqw7E1unRh8ar--341" value="24PIN" style="whiteSpace=wrap;html=1;fillColor=#F45B69;strokeColor=#028090;fontColor=#E4FDE1;sketch=1;" parent="1" vertex="1">
          <mxGeometry x="362" y="608" width="80" height="30" as="geometry" />
        </mxCell>
        <mxCell id="pqWbWPmqw7E1unRh8ar--342" value="GPIO8(SPI0CE0)" style="whiteSpace=wrap;html=1;fillColor=#F45B69;strokeColor=#028090;fontColor=#E4FDE1;sketch=1;" parent="1" vertex="1">
          <mxGeometry x="182" y="648" width="110" height="30" as="geometry" />
        </mxCell>
        <mxCell id="pqWbWPmqw7E1unRh8ar--343" value="" style="noEdgeStyle=1;strokeColor=#028090;fontColor=#E4FDE1;sketch=1;labelBackgroundColor=#114B5F;" parent="1" source="pqWbWPmqw7E1unRh8ar--341" target="pqWbWPmqw7E1unRh8ar--342" edge="1">
          <mxGeometry x="-6753" y="-397" as="geometry" />
        </mxCell>
        <mxCell id="pqWbWPmqw7E1unRh8ar--344" value="26PIN" style="whiteSpace=wrap;html=1;fillColor=#F45B69;strokeColor=#028090;fontColor=#E4FDE1;sketch=1;" parent="1" vertex="1">
          <mxGeometry x="472" y="748" width="80" height="30" as="geometry" />
        </mxCell>
        <mxCell id="pqWbWPmqw7E1unRh8ar--345" value="GPIO7(SPI0CE1)" style="whiteSpace=wrap;html=1;fillColor=#F45B69;strokeColor=#028090;fontColor=#E4FDE1;sketch=1;" parent="1" vertex="1">
          <mxGeometry x="352" y="868" width="110" height="30" as="geometry" />
        </mxCell>
        <mxCell id="pqWbWPmqw7E1unRh8ar--346" value="" style="noEdgeStyle=1;strokeColor=#028090;fontColor=#E4FDE1;sketch=1;labelBackgroundColor=#114B5F;" parent="1" source="pqWbWPmqw7E1unRh8ar--344" target="pqWbWPmqw7E1unRh8ar--345" edge="1">
          <mxGeometry x="-6753" y="-397" as="geometry" />
        </mxCell>
        <mxCell id="pqWbWPmqw7E1unRh8ar--347" value="28PIN" style="whiteSpace=wrap;html=1;fillColor=#F45B69;strokeColor=#028090;fontColor=#E4FDE1;sketch=1;" parent="1" vertex="1">
          <mxGeometry x="552" y="228" width="80" height="30" as="geometry" />
        </mxCell>
        <mxCell id="pqWbWPmqw7E1unRh8ar--348" value="GPIO1(EEPROMSCL)" style="whiteSpace=wrap;html=1;fillColor=#F45B69;strokeColor=#028090;fontColor=#E4FDE1;sketch=1;" parent="1" vertex="1">
          <mxGeometry x="472" y="28" width="140" height="30" as="geometry" />
        </mxCell>
        <mxCell id="pqWbWPmqw7E1unRh8ar--349" value="" style="noEdgeStyle=1;strokeColor=#028090;fontColor=#E4FDE1;sketch=1;labelBackgroundColor=#114B5F;" parent="1" source="pqWbWPmqw7E1unRh8ar--347" target="pqWbWPmqw7E1unRh8ar--348" edge="1">
          <mxGeometry x="-6753" y="-397" as="geometry" />
        </mxCell>
        <mxCell id="pqWbWPmqw7E1unRh8ar--350" value="30PIN" style="whiteSpace=wrap;html=1;fillColor=#F45B69;strokeColor=#028090;fontColor=#E4FDE1;sketch=1;" parent="1" vertex="1">
          <mxGeometry x="602" y="458" width="80" height="30" as="geometry" />
        </mxCell>
        <mxCell id="pqWbWPmqw7E1unRh8ar--351" value="" style="noEdgeStyle=1;strokeColor=#028090;fontColor=#E4FDE1;sketch=1;labelBackgroundColor=#114B5F;" parent="1" source="pqWbWPmqw7E1unRh8ar--350" target="pqWbWPmqw7E1unRh8ar--268" edge="1">
          <mxGeometry x="-6753" y="-397" as="geometry" />
        </mxCell>
        <mxCell id="pqWbWPmqw7E1unRh8ar--352" value="32PIN" style="whiteSpace=wrap;html=1;fillColor=#F45B69;strokeColor=#028090;fontColor=#E4FDE1;sketch=1;" parent="1" vertex="1">
          <mxGeometry x="342" y="518" width="80" height="30" as="geometry" />
        </mxCell>
        <mxCell id="pqWbWPmqw7E1unRh8ar--353" value="GPIO12(PWM0)" style="whiteSpace=wrap;html=1;fillColor=#F45B69;strokeColor=#028090;fontColor=#E4FDE1;sketch=1;" parent="1" vertex="1">
          <mxGeometry x="132" y="458" width="100" height="30" as="geometry" />
        </mxCell>
        <mxCell id="pqWbWPmqw7E1unRh8ar--354" value="" style="noEdgeStyle=1;strokeColor=#028090;fontColor=#E4FDE1;sketch=1;labelBackgroundColor=#114B5F;" parent="1" source="pqWbWPmqw7E1unRh8ar--352" target="pqWbWPmqw7E1unRh8ar--353" edge="1">
          <mxGeometry x="-6753" y="-397" as="geometry" />
        </mxCell>
        <mxCell id="pqWbWPmqw7E1unRh8ar--355" value="34PIN" style="whiteSpace=wrap;html=1;fillColor=#F45B69;strokeColor=#028090;fontColor=#E4FDE1;sketch=1;" parent="1" vertex="1">
          <mxGeometry x="542" y="518" width="80" height="30" as="geometry" />
        </mxCell>
        <mxCell id="pqWbWPmqw7E1unRh8ar--356" value="" style="noEdgeStyle=1;strokeColor=#028090;fontColor=#E4FDE1;sketch=1;labelBackgroundColor=#114B5F;" parent="1" source="pqWbWPmqw7E1unRh8ar--355" target="pqWbWPmqw7E1unRh8ar--268" edge="1">
          <mxGeometry x="-6753" y="-397" as="geometry" />
        </mxCell>
        <mxCell id="pqWbWPmqw7E1unRh8ar--357" value="36PIN" style="whiteSpace=wrap;html=1;fillColor=#F45B69;strokeColor=#028090;fontColor=#E4FDE1;sketch=1;" parent="1" vertex="1">
          <mxGeometry x="972" y="518" width="80" height="30" as="geometry" />
        </mxCell>
        <mxCell id="pqWbWPmqw7E1unRh8ar--358" value="GPIO16" style="whiteSpace=wrap;html=1;fillColor=#F45B69;strokeColor=#028090;fontColor=#E4FDE1;sketch=1;" parent="1" vertex="1">
          <mxGeometry x="1182" y="488" width="80" height="30" as="geometry" />
        </mxCell>
        <mxCell id="pqWbWPmqw7E1unRh8ar--359" value="" style="noEdgeStyle=1;strokeColor=#028090;fontColor=#E4FDE1;sketch=1;labelBackgroundColor=#114B5F;" parent="1" source="pqWbWPmqw7E1unRh8ar--357" target="pqWbWPmqw7E1unRh8ar--358" edge="1">
          <mxGeometry x="-6753" y="-397" as="geometry" />
        </mxCell>
        <mxCell id="pqWbWPmqw7E1unRh8ar--360" value="38PIN" style="whiteSpace=wrap;html=1;fillColor=#F45B69;strokeColor=#028090;fontColor=#E4FDE1;sketch=1;" parent="1" vertex="1">
          <mxGeometry x="412" y="538" width="80" height="30" as="geometry" />
        </mxCell>
        <mxCell id="pqWbWPmqw7E1unRh8ar--361" value="GPIO20(PCMDIN)" style="whiteSpace=wrap;html=1;fillColor=#F45B69;strokeColor=#028090;fontColor=#E4FDE1;sketch=1;" parent="1" vertex="1">
          <mxGeometry x="212" y="528" width="110" height="30" as="geometry" />
        </mxCell>
        <mxCell id="pqWbWPmqw7E1unRh8ar--362" value="" style="noEdgeStyle=1;strokeColor=#028090;fontColor=#E4FDE1;sketch=1;labelBackgroundColor=#114B5F;" parent="1" source="pqWbWPmqw7E1unRh8ar--360" target="pqWbWPmqw7E1unRh8ar--361" edge="1">
          <mxGeometry x="-6753" y="-397" as="geometry" />
        </mxCell>
        <mxCell id="pqWbWPmqw7E1unRh8ar--363" value="40PIN" style="whiteSpace=wrap;html=1;fillColor=#F45B69;strokeColor=#028090;fontColor=#E4FDE1;sketch=1;" parent="1" vertex="1">
          <mxGeometry x="872" y="668" width="80" height="30" as="geometry" />
        </mxCell>
        <mxCell id="pqWbWPmqw7E1unRh8ar--364" value="GPIO21(PCMDOUT)" style="whiteSpace=wrap;html=1;fillColor=#F45B69;strokeColor=#028090;fontColor=#E4FDE1;sketch=1;" parent="1" vertex="1">
          <mxGeometry x="1032" y="768" width="130" height="30" as="geometry" />
        </mxCell>
        <mxCell id="pqWbWPmqw7E1unRh8ar--365" value="" style="noEdgeStyle=1;strokeColor=#028090;fontColor=#E4FDE1;sketch=1;labelBackgroundColor=#114B5F;" parent="1" source="pqWbWPmqw7E1unRh8ar--363" target="pqWbWPmqw7E1unRh8ar--364" edge="1">
          <mxGeometry x="-6753" y="-397" as="geometry" />
        </mxCell>
        <mxCell id="pqWbWPmqw7E1unRh8ar--366" value="" style="noEdgeStyle=1;strokeColor=#028090;fontColor=#E4FDE1;sketch=1;labelBackgroundColor=#114B5F;" parent="1" source="pqWbWPmqw7E1unRh8ar--253" target="pqWbWPmqw7E1unRh8ar--255" edge="1">
          <mxGeometry x="-6753" y="-397" as="geometry" />
        </mxCell>
        <mxCell id="pqWbWPmqw7E1unRh8ar--367" value="" style="noEdgeStyle=1;strokeColor=#028090;fontColor=#E4FDE1;sketch=1;labelBackgroundColor=#114B5F;" parent="1" source="pqWbWPmqw7E1unRh8ar--253" target="pqWbWPmqw7E1unRh8ar--258" edge="1">
          <mxGeometry x="-6753" y="-397" as="geometry" />
        </mxCell>
        <mxCell id="pqWbWPmqw7E1unRh8ar--368" value="" style="noEdgeStyle=1;strokeColor=#028090;fontColor=#E4FDE1;sketch=1;labelBackgroundColor=#114B5F;" parent="1" source="pqWbWPmqw7E1unRh8ar--253" target="pqWbWPmqw7E1unRh8ar--261" edge="1">
          <mxGeometry x="-6753" y="-397" as="geometry" />
        </mxCell>
        <mxCell id="pqWbWPmqw7E1unRh8ar--369" value="" style="noEdgeStyle=1;strokeColor=#028090;fontColor=#E4FDE1;sketch=1;labelBackgroundColor=#114B5F;" parent="1" source="pqWbWPmqw7E1unRh8ar--253" target="pqWbWPmqw7E1unRh8ar--264" edge="1">
          <mxGeometry x="-6753" y="-397" as="geometry" />
        </mxCell>
        <mxCell id="pqWbWPmqw7E1unRh8ar--370" value="" style="noEdgeStyle=1;strokeColor=#028090;fontColor=#E4FDE1;sketch=1;labelBackgroundColor=#114B5F;" parent="1" source="pqWbWPmqw7E1unRh8ar--253" target="pqWbWPmqw7E1unRh8ar--267" edge="1">
          <mxGeometry x="-6753" y="-397" as="geometry" />
        </mxCell>
        <mxCell id="pqWbWPmqw7E1unRh8ar--371" value="" style="noEdgeStyle=1;strokeColor=#028090;fontColor=#E4FDE1;sketch=1;labelBackgroundColor=#114B5F;" parent="1" source="pqWbWPmqw7E1unRh8ar--253" target="pqWbWPmqw7E1unRh8ar--270" edge="1">
          <mxGeometry x="-6753" y="-397" as="geometry" />
        </mxCell>
        <mxCell id="pqWbWPmqw7E1unRh8ar--372" value="" style="noEdgeStyle=1;strokeColor=#028090;fontColor=#E4FDE1;sketch=1;labelBackgroundColor=#114B5F;" parent="1" source="pqWbWPmqw7E1unRh8ar--253" target="pqWbWPmqw7E1unRh8ar--273" edge="1">
          <mxGeometry x="-6753" y="-397" as="geometry" />
        </mxCell>
        <mxCell id="pqWbWPmqw7E1unRh8ar--373" value="" style="noEdgeStyle=1;strokeColor=#028090;fontColor=#E4FDE1;sketch=1;labelBackgroundColor=#114B5F;" parent="1" source="pqWbWPmqw7E1unRh8ar--253" target="pqWbWPmqw7E1unRh8ar--276" edge="1">
          <mxGeometry x="-6753" y="-397" as="geometry" />
        </mxCell>
        <mxCell id="pqWbWPmqw7E1unRh8ar--374" value="" style="noEdgeStyle=1;strokeColor=#028090;fontColor=#E4FDE1;sketch=1;labelBackgroundColor=#114B5F;" parent="1" source="pqWbWPmqw7E1unRh8ar--253" target="pqWbWPmqw7E1unRh8ar--279" edge="1">
          <mxGeometry x="-6753" y="-397" as="geometry" />
        </mxCell>
        <mxCell id="pqWbWPmqw7E1unRh8ar--375" value="" style="noEdgeStyle=1;strokeColor=#028090;fontColor=#E4FDE1;sketch=1;labelBackgroundColor=#114B5F;" parent="1" source="pqWbWPmqw7E1unRh8ar--253" target="pqWbWPmqw7E1unRh8ar--281" edge="1">
          <mxGeometry x="-6753" y="-397" as="geometry" />
        </mxCell>
        <mxCell id="pqWbWPmqw7E1unRh8ar--376" value="" style="noEdgeStyle=1;strokeColor=#028090;fontColor=#E4FDE1;sketch=1;labelBackgroundColor=#114B5F;" parent="1" source="pqWbWPmqw7E1unRh8ar--253" target="pqWbWPmqw7E1unRh8ar--284" edge="1">
          <mxGeometry x="-6753" y="-397" as="geometry" />
        </mxCell>
        <mxCell id="pqWbWPmqw7E1unRh8ar--377" value="" style="noEdgeStyle=1;strokeColor=#028090;fontColor=#E4FDE1;sketch=1;labelBackgroundColor=#114B5F;" parent="1" source="pqWbWPmqw7E1unRh8ar--253" target="pqWbWPmqw7E1unRh8ar--287" edge="1">
          <mxGeometry x="-6753" y="-397" as="geometry" />
        </mxCell>
        <mxCell id="pqWbWPmqw7E1unRh8ar--378" value="" style="noEdgeStyle=1;strokeColor=#028090;fontColor=#E4FDE1;sketch=1;labelBackgroundColor=#114B5F;" parent="1" source="pqWbWPmqw7E1unRh8ar--253" target="pqWbWPmqw7E1unRh8ar--290" edge="1">
          <mxGeometry x="-6753" y="-397" as="geometry" />
        </mxCell>
        <mxCell id="pqWbWPmqw7E1unRh8ar--379" value="" style="noEdgeStyle=1;strokeColor=#028090;fontColor=#E4FDE1;sketch=1;labelBackgroundColor=#114B5F;" parent="1" source="pqWbWPmqw7E1unRh8ar--253" target="pqWbWPmqw7E1unRh8ar--292" edge="1">
          <mxGeometry x="-6753" y="-397" as="geometry" />
        </mxCell>
        <mxCell id="pqWbWPmqw7E1unRh8ar--380" value="" style="noEdgeStyle=1;strokeColor=#028090;fontColor=#E4FDE1;sketch=1;labelBackgroundColor=#114B5F;" parent="1" source="pqWbWPmqw7E1unRh8ar--253" target="pqWbWPmqw7E1unRh8ar--295" edge="1">
          <mxGeometry x="-6753" y="-397" as="geometry" />
        </mxCell>
        <mxCell id="pqWbWPmqw7E1unRh8ar--381" value="" style="noEdgeStyle=1;strokeColor=#028090;fontColor=#E4FDE1;sketch=1;labelBackgroundColor=#114B5F;" parent="1" source="pqWbWPmqw7E1unRh8ar--253" target="pqWbWPmqw7E1unRh8ar--298" edge="1">
          <mxGeometry x="-6753" y="-397" as="geometry" />
        </mxCell>
        <mxCell id="pqWbWPmqw7E1unRh8ar--382" value="" style="noEdgeStyle=1;strokeColor=#028090;fontColor=#E4FDE1;sketch=1;labelBackgroundColor=#114B5F;" parent="1" source="pqWbWPmqw7E1unRh8ar--253" target="pqWbWPmqw7E1unRh8ar--301" edge="1">
          <mxGeometry x="-6753" y="-397" as="geometry" />
        </mxCell>
        <mxCell id="pqWbWPmqw7E1unRh8ar--383" value="" style="noEdgeStyle=1;strokeColor=#028090;fontColor=#E4FDE1;sketch=1;labelBackgroundColor=#114B5F;" parent="1" source="pqWbWPmqw7E1unRh8ar--253" target="pqWbWPmqw7E1unRh8ar--304" edge="1">
          <mxGeometry x="-6753" y="-397" as="geometry" />
        </mxCell>
        <mxCell id="pqWbWPmqw7E1unRh8ar--384" value="" style="noEdgeStyle=1;strokeColor=#028090;fontColor=#E4FDE1;sketch=1;labelBackgroundColor=#114B5F;" parent="1" source="pqWbWPmqw7E1unRh8ar--253" target="pqWbWPmqw7E1unRh8ar--307" edge="1">
          <mxGeometry x="-6753" y="-397" as="geometry" />
        </mxCell>
        <mxCell id="pqWbWPmqw7E1unRh8ar--385" value="" style="noEdgeStyle=1;strokeColor=#028090;fontColor=#E4FDE1;sketch=1;labelBackgroundColor=#114B5F;" parent="1" source="pqWbWPmqw7E1unRh8ar--253" target="pqWbWPmqw7E1unRh8ar--310" edge="1">
          <mxGeometry x="-6753" y="-397" as="geometry" />
        </mxCell>
        <mxCell id="pqWbWPmqw7E1unRh8ar--386" value="" style="noEdgeStyle=1;strokeColor=#028090;fontColor=#E4FDE1;sketch=1;labelBackgroundColor=#114B5F;" parent="1" source="pqWbWPmqw7E1unRh8ar--253" target="pqWbWPmqw7E1unRh8ar--312" edge="1">
          <mxGeometry x="-6753" y="-397" as="geometry" />
        </mxCell>
        <mxCell id="pqWbWPmqw7E1unRh8ar--387" value="" style="noEdgeStyle=1;strokeColor=#028090;fontColor=#E4FDE1;sketch=1;labelBackgroundColor=#114B5F;" parent="1" source="pqWbWPmqw7E1unRh8ar--253" target="pqWbWPmqw7E1unRh8ar--315" edge="1">
          <mxGeometry x="-6753" y="-397" as="geometry" />
        </mxCell>
        <mxCell id="pqWbWPmqw7E1unRh8ar--388" value="" style="noEdgeStyle=1;strokeColor=#028090;fontColor=#E4FDE1;sketch=1;labelBackgroundColor=#114B5F;" parent="1" source="pqWbWPmqw7E1unRh8ar--253" target="pqWbWPmqw7E1unRh8ar--317" edge="1">
          <mxGeometry x="-6753" y="-397" as="geometry" />
        </mxCell>
        <mxCell id="pqWbWPmqw7E1unRh8ar--389" value="" style="noEdgeStyle=1;strokeColor=#028090;fontColor=#E4FDE1;sketch=1;labelBackgroundColor=#114B5F;" parent="1" source="pqWbWPmqw7E1unRh8ar--253" target="pqWbWPmqw7E1unRh8ar--319" edge="1">
          <mxGeometry x="-6753" y="-397" as="geometry" />
        </mxCell>
        <mxCell id="pqWbWPmqw7E1unRh8ar--390" value="" style="noEdgeStyle=1;strokeColor=#028090;fontColor=#E4FDE1;sketch=1;labelBackgroundColor=#114B5F;" parent="1" source="pqWbWPmqw7E1unRh8ar--253" target="pqWbWPmqw7E1unRh8ar--322" edge="1">
          <mxGeometry x="-6753" y="-397" as="geometry" />
        </mxCell>
        <mxCell id="pqWbWPmqw7E1unRh8ar--391" value="" style="noEdgeStyle=1;strokeColor=#028090;fontColor=#E4FDE1;sketch=1;labelBackgroundColor=#114B5F;" parent="1" source="pqWbWPmqw7E1unRh8ar--253" target="pqWbWPmqw7E1unRh8ar--325" edge="1">
          <mxGeometry x="-6753" y="-397" as="geometry" />
        </mxCell>
        <mxCell id="pqWbWPmqw7E1unRh8ar--392" value="" style="noEdgeStyle=1;strokeColor=#028090;fontColor=#E4FDE1;sketch=1;labelBackgroundColor=#114B5F;" parent="1" source="pqWbWPmqw7E1unRh8ar--253" target="pqWbWPmqw7E1unRh8ar--328" edge="1">
          <mxGeometry x="-6753" y="-397" as="geometry" />
        </mxCell>
        <mxCell id="pqWbWPmqw7E1unRh8ar--393" value="" style="noEdgeStyle=1;strokeColor=#028090;fontColor=#E4FDE1;sketch=1;labelBackgroundColor=#114B5F;" parent="1" source="pqWbWPmqw7E1unRh8ar--253" target="pqWbWPmqw7E1unRh8ar--330" edge="1">
          <mxGeometry x="-6753" y="-397" as="geometry" />
        </mxCell>
        <mxCell id="pqWbWPmqw7E1unRh8ar--394" value="" style="noEdgeStyle=1;strokeColor=#028090;fontColor=#E4FDE1;sketch=1;labelBackgroundColor=#114B5F;" parent="1" source="pqWbWPmqw7E1unRh8ar--253" target="pqWbWPmqw7E1unRh8ar--333" edge="1">
          <mxGeometry x="-6753" y="-397" as="geometry" />
        </mxCell>
        <mxCell id="pqWbWPmqw7E1unRh8ar--395" value="" style="noEdgeStyle=1;strokeColor=#028090;fontColor=#E4FDE1;sketch=1;labelBackgroundColor=#114B5F;" parent="1" source="pqWbWPmqw7E1unRh8ar--253" target="pqWbWPmqw7E1unRh8ar--336" edge="1">
          <mxGeometry x="-6753" y="-397" as="geometry" />
        </mxCell>
        <mxCell id="pqWbWPmqw7E1unRh8ar--396" value="" style="noEdgeStyle=1;strokeColor=#028090;fontColor=#E4FDE1;sketch=1;labelBackgroundColor=#114B5F;" parent="1" source="pqWbWPmqw7E1unRh8ar--253" target="pqWbWPmqw7E1unRh8ar--338" edge="1">
          <mxGeometry x="-6753" y="-397" as="geometry" />
        </mxCell>
        <mxCell id="pqWbWPmqw7E1unRh8ar--397" value="" style="noEdgeStyle=1;strokeColor=#028090;fontColor=#E4FDE1;sketch=1;labelBackgroundColor=#114B5F;" parent="1" source="pqWbWPmqw7E1unRh8ar--253" target="pqWbWPmqw7E1unRh8ar--341" edge="1">
          <mxGeometry x="-6753" y="-397" as="geometry" />
        </mxCell>
        <mxCell id="pqWbWPmqw7E1unRh8ar--398" value="" style="noEdgeStyle=1;strokeColor=#028090;fontColor=#E4FDE1;sketch=1;labelBackgroundColor=#114B5F;" parent="1" source="pqWbWPmqw7E1unRh8ar--253" target="pqWbWPmqw7E1unRh8ar--344" edge="1">
          <mxGeometry x="-6753" y="-397" as="geometry" />
        </mxCell>
        <mxCell id="pqWbWPmqw7E1unRh8ar--399" value="" style="noEdgeStyle=1;strokeColor=#028090;fontColor=#E4FDE1;sketch=1;labelBackgroundColor=#114B5F;" parent="1" source="pqWbWPmqw7E1unRh8ar--253" target="pqWbWPmqw7E1unRh8ar--347" edge="1">
          <mxGeometry x="-6753" y="-397" as="geometry" />
        </mxCell>
        <mxCell id="pqWbWPmqw7E1unRh8ar--400" value="" style="noEdgeStyle=1;strokeColor=#028090;fontColor=#E4FDE1;sketch=1;labelBackgroundColor=#114B5F;" parent="1" source="pqWbWPmqw7E1unRh8ar--253" target="pqWbWPmqw7E1unRh8ar--350" edge="1">
          <mxGeometry x="-6753" y="-397" as="geometry" />
        </mxCell>
        <mxCell id="pqWbWPmqw7E1unRh8ar--401" value="" style="noEdgeStyle=1;strokeColor=#028090;fontColor=#E4FDE1;sketch=1;labelBackgroundColor=#114B5F;" parent="1" source="pqWbWPmqw7E1unRh8ar--253" target="pqWbWPmqw7E1unRh8ar--352" edge="1">
          <mxGeometry x="-6753" y="-397" as="geometry" />
        </mxCell>
        <mxCell id="pqWbWPmqw7E1unRh8ar--402" value="" style="noEdgeStyle=1;strokeColor=#028090;fontColor=#E4FDE1;sketch=1;labelBackgroundColor=#114B5F;" parent="1" source="pqWbWPmqw7E1unRh8ar--253" target="pqWbWPmqw7E1unRh8ar--355" edge="1">
          <mxGeometry x="-6753" y="-397" as="geometry" />
        </mxCell>
        <mxCell id="pqWbWPmqw7E1unRh8ar--403" value="" style="noEdgeStyle=1;strokeColor=#028090;fontColor=#E4FDE1;sketch=1;labelBackgroundColor=#114B5F;" parent="1" source="pqWbWPmqw7E1unRh8ar--253" target="pqWbWPmqw7E1unRh8ar--357" edge="1">
          <mxGeometry x="-6753" y="-397" as="geometry" />
        </mxCell>
        <mxCell id="pqWbWPmqw7E1unRh8ar--404" value="" style="noEdgeStyle=1;strokeColor=#028090;fontColor=#E4FDE1;sketch=1;labelBackgroundColor=#114B5F;" parent="1" source="pqWbWPmqw7E1unRh8ar--253" target="pqWbWPmqw7E1unRh8ar--360" edge="1">
          <mxGeometry x="-6753" y="-397" as="geometry" />
        </mxCell>
        <mxCell id="pqWbWPmqw7E1unRh8ar--405" value="" style="noEdgeStyle=1;strokeColor=#028090;fontColor=#E4FDE1;sketch=1;labelBackgroundColor=#114B5F;" parent="1" source="pqWbWPmqw7E1unRh8ar--253" target="pqWbWPmqw7E1unRh8ar--363" edge="1">
          <mxGeometry x="-6753" y="-397" as="geometry" />
        </mxCell>
        <mxCell id="v3TkLxO8rTcV8y7XoOtQ-1" value="RPI" style="whiteSpace=wrap;html=1;fillColor=#F45B69;strokeColor=#028090;fontColor=#E4FDE1;sketch=1;" parent="1" vertex="1">
          <mxGeometry x="292" y="918" width="80" height="30" as="geometry" />
        </mxCell>
        <mxCell id="v3TkLxO8rTcV8y7XoOtQ-2" value="ARDUINO" style="whiteSpace=wrap;html=1;fillColor=#F45B69;strokeColor=#028090;fontColor=#E4FDE1;sketch=1;" parent="1" vertex="1">
          <mxGeometry x="-168" y="1078" width="80" height="30" as="geometry" />
        </mxCell>
        <mxCell id="v3TkLxO8rTcV8y7XoOtQ-3" value="" style="noEdgeStyle=1;strokeColor=#028090;fontColor=#E4FDE1;sketch=1;labelBackgroundColor=#114B5F;" parent="1" source="v3TkLxO8rTcV8y7XoOtQ-1" target="v3TkLxO8rTcV8y7XoOtQ-2" edge="1">
          <mxGeometry x="-1285" y="-1596" as="geometry" />
        </mxCell>
        <mxCell id="v3TkLxO8rTcV8y7XoOtQ-4" value="1_DHT11" style="whiteSpace=wrap;html=1;fillColor=#F45B69;strokeColor=#028090;fontColor=#E4FDE1;sketch=1;" parent="1" vertex="1">
          <mxGeometry x="-48" y="1358" width="80" height="30" as="geometry" />
        </mxCell>
        <mxCell id="v3TkLxO8rTcV8y7XoOtQ-5" value="" style="noEdgeStyle=1;strokeColor=#028090;fontColor=#E4FDE1;sketch=1;labelBackgroundColor=#114B5F;" parent="1" source="v3TkLxO8rTcV8y7XoOtQ-2" target="v3TkLxO8rTcV8y7XoOtQ-4" edge="1">
          <mxGeometry x="-1285" y="-1596" as="geometry" />
        </mxCell>
        <mxCell id="v3TkLxO8rTcV8y7XoOtQ-6" value="2_DHT11" style="whiteSpace=wrap;html=1;fillColor=#F45B69;strokeColor=#028090;fontColor=#E4FDE1;sketch=1;" parent="1" vertex="1">
          <mxGeometry x="-88" y="1288" width="80" height="30" as="geometry" />
        </mxCell>
        <mxCell id="v3TkLxO8rTcV8y7XoOtQ-7" value="" style="noEdgeStyle=1;strokeColor=#028090;fontColor=#E4FDE1;sketch=1;labelBackgroundColor=#114B5F;" parent="1" source="v3TkLxO8rTcV8y7XoOtQ-2" target="v3TkLxO8rTcV8y7XoOtQ-6" edge="1">
          <mxGeometry x="-1285" y="-1596" as="geometry" />
        </mxCell>
        <mxCell id="v3TkLxO8rTcV8y7XoOtQ-8" value="3_DHT11" style="whiteSpace=wrap;html=1;fillColor=#F45B69;strokeColor=#028090;fontColor=#E4FDE1;sketch=1;" parent="1" vertex="1">
          <mxGeometry x="2" y="1288" width="80" height="30" as="geometry" />
        </mxCell>
        <mxCell id="v3TkLxO8rTcV8y7XoOtQ-9" value="" style="noEdgeStyle=1;strokeColor=#028090;fontColor=#E4FDE1;sketch=1;labelBackgroundColor=#114B5F;" parent="1" source="v3TkLxO8rTcV8y7XoOtQ-2" target="v3TkLxO8rTcV8y7XoOtQ-8" edge="1">
          <mxGeometry x="-1285" y="-1596" as="geometry" />
        </mxCell>
        <mxCell id="v3TkLxO8rTcV8y7XoOtQ-10" value="4_DHT11" style="whiteSpace=wrap;html=1;fillColor=#F45B69;strokeColor=#028090;fontColor=#E4FDE1;sketch=1;" parent="1" vertex="1">
          <mxGeometry x="-148" y="1358" width="80" height="30" as="geometry" />
        </mxCell>
        <mxCell id="v3TkLxO8rTcV8y7XoOtQ-11" value="" style="noEdgeStyle=1;strokeColor=#028090;fontColor=#E4FDE1;sketch=1;labelBackgroundColor=#114B5F;" parent="1" source="v3TkLxO8rTcV8y7XoOtQ-2" target="v3TkLxO8rTcV8y7XoOtQ-10" edge="1">
          <mxGeometry x="-1285" y="-1596" as="geometry" />
        </mxCell>
        <mxCell id="v3TkLxO8rTcV8y7XoOtQ-12" value="GND_MOI" style="whiteSpace=wrap;html=1;fillColor=#F45B69;strokeColor=#028090;fontColor=#E4FDE1;sketch=1;" parent="1" vertex="1">
          <mxGeometry x="-58" y="1098" width="80" height="30" as="geometry" />
        </mxCell>
        <mxCell id="v3TkLxO8rTcV8y7XoOtQ-13" value="" style="noEdgeStyle=1;strokeColor=#028090;fontColor=#E4FDE1;sketch=1;labelBackgroundColor=#114B5F;" parent="1" source="v3TkLxO8rTcV8y7XoOtQ-2" target="v3TkLxO8rTcV8y7XoOtQ-12" edge="1">
          <mxGeometry x="-1285" y="-1596" as="geometry" />
        </mxCell>
        <mxCell id="v3TkLxO8rTcV8y7XoOtQ-16" value="DISP" style="whiteSpace=wrap;html=1;fillColor=#F45B69;strokeColor=#028090;fontColor=#E4FDE1;sketch=1;" parent="1" vertex="1">
          <mxGeometry x="92" y="1098" width="80" height="30" as="geometry" />
        </mxCell>
        <mxCell id="v3TkLxO8rTcV8y7XoOtQ-17" value="" style="noEdgeStyle=1;strokeColor=#028090;fontColor=#E4FDE1;sketch=1;labelBackgroundColor=#114B5F;" parent="1" source="v3TkLxO8rTcV8y7XoOtQ-2" target="v3TkLxO8rTcV8y7XoOtQ-16" edge="1">
          <mxGeometry x="-1285" y="-1596" as="geometry" />
        </mxCell>
        <mxCell id="v3TkLxO8rTcV8y7XoOtQ-18" value="S_TEMP" style="whiteSpace=wrap;html=1;fillColor=#F45B69;strokeColor=#028090;fontColor=#E4FDE1;sketch=1;" parent="1" vertex="1">
          <mxGeometry x="62" y="978" width="80" height="30" as="geometry" />
        </mxCell>
        <mxCell id="v3TkLxO8rTcV8y7XoOtQ-19" value="" style="noEdgeStyle=1;strokeColor=#028090;fontColor=#E4FDE1;sketch=1;labelBackgroundColor=#114B5F;" parent="1" source="v3TkLxO8rTcV8y7XoOtQ-2" target="v3TkLxO8rTcV8y7XoOtQ-18" edge="1">
          <mxGeometry x="-1285" y="-1596" as="geometry" />
        </mxCell>
        <mxCell id="v3TkLxO8rTcV8y7XoOtQ-20" value="UV_S" style="whiteSpace=wrap;html=1;fillColor=#F45B69;strokeColor=#028090;fontColor=#E4FDE1;sketch=1;" parent="1" vertex="1">
          <mxGeometry x="-78" y="1198" width="80" height="30" as="geometry" />
        </mxCell>
        <mxCell id="v3TkLxO8rTcV8y7XoOtQ-21" value="" style="noEdgeStyle=1;strokeColor=#028090;fontColor=#E4FDE1;sketch=1;labelBackgroundColor=#114B5F;" parent="1" source="v3TkLxO8rTcV8y7XoOtQ-2" target="v3TkLxO8rTcV8y7XoOtQ-20" edge="1">
          <mxGeometry x="-1285" y="-1596" as="geometry" />
        </mxCell>
        <mxCell id="v3TkLxO8rTcV8y7XoOtQ-22" value="LGT_S" style="whiteSpace=wrap;html=1;fillColor=#F45B69;strokeColor=#028090;fontColor=#E4FDE1;sketch=1;" parent="1" vertex="1">
          <mxGeometry x="-8" y="898" width="80" height="30" as="geometry" />
        </mxCell>
        <mxCell id="v3TkLxO8rTcV8y7XoOtQ-23" value="" style="noEdgeStyle=1;strokeColor=#028090;fontColor=#E4FDE1;sketch=1;labelBackgroundColor=#114B5F;" parent="1" source="v3TkLxO8rTcV8y7XoOtQ-2" target="v3TkLxO8rTcV8y7XoOtQ-22" edge="1">
          <mxGeometry x="-1285" y="-1596" as="geometry" />
        </mxCell>
        <mxCell id="v3TkLxO8rTcV8y7XoOtQ-24" value="MTN_S" style="whiteSpace=wrap;html=1;fillColor=#F45B69;strokeColor=#028090;fontColor=#E4FDE1;sketch=1;" parent="1" vertex="1">
          <mxGeometry x="-188" y="1268" width="80" height="30" as="geometry" />
        </mxCell>
        <mxCell id="v3TkLxO8rTcV8y7XoOtQ-25" value="" style="noEdgeStyle=1;strokeColor=#028090;fontColor=#E4FDE1;sketch=1;labelBackgroundColor=#114B5F;" parent="1" source="v3TkLxO8rTcV8y7XoOtQ-2" target="v3TkLxO8rTcV8y7XoOtQ-24" edge="1">
          <mxGeometry x="-1285" y="-1596" as="geometry" />
        </mxCell>
        <mxCell id="v3TkLxO8rTcV8y7XoOtQ-27" value="" style="noEdgeStyle=1;strokeColor=#028090;fontColor=#E4FDE1;sketch=1;labelBackgroundColor=#114B5F;" parent="1" source="v3TkLxO8rTcV8y7XoOtQ-1" target="Iy7pLN3KeixTR69sFVyn-167" edge="1">
          <mxGeometry x="-1285" y="-1596" as="geometry" />
        </mxCell>
        <mxCell id="Iy7pLN3KeixTR69sFVyn-95" value="ARD" style="whiteSpace=wrap;html=1;fillColor=#F45B69;strokeColor=#028090;fontColor=#E4FDE1;sketch=1;" parent="1" vertex="1">
          <mxGeometry x="-478" y="1148" width="80" height="30" as="geometry" />
        </mxCell>
        <mxCell id="Iy7pLN3KeixTR69sFVyn-96" value="ARD_D1" style="whiteSpace=wrap;html=1;fillColor=#F45B69;strokeColor=#028090;fontColor=#E4FDE1;sketch=1;" parent="1" vertex="1">
          <mxGeometry x="-228" y="928" width="80" height="30" as="geometry" />
        </mxCell>
        <mxCell id="Iy7pLN3KeixTR69sFVyn-97" value="" style="noEdgeStyle=1;strokeColor=#028090;fontColor=#E4FDE1;sketch=1;labelBackgroundColor=#114B5F;" parent="1" source="Iy7pLN3KeixTR69sFVyn-95" target="Iy7pLN3KeixTR69sFVyn-96" edge="1">
          <mxGeometry x="9" y="453" as="geometry" />
        </mxCell>
        <mxCell id="Iy7pLN3KeixTR69sFVyn-98" value="ARD_D2" style="whiteSpace=wrap;html=1;fillColor=#F45B69;strokeColor=#028090;fontColor=#E4FDE1;sketch=1;" parent="1" vertex="1">
          <mxGeometry x="-228" y="1138" width="80" height="30" as="geometry" />
        </mxCell>
        <mxCell id="Iy7pLN3KeixTR69sFVyn-99" value="" style="noEdgeStyle=1;strokeColor=#028090;fontColor=#E4FDE1;sketch=1;labelBackgroundColor=#114B5F;" parent="1" source="Iy7pLN3KeixTR69sFVyn-95" target="Iy7pLN3KeixTR69sFVyn-98" edge="1">
          <mxGeometry x="9" y="453" as="geometry" />
        </mxCell>
        <mxCell id="Iy7pLN3KeixTR69sFVyn-100" value="ARD_D3" style="whiteSpace=wrap;html=1;fillColor=#F45B69;strokeColor=#028090;fontColor=#E4FDE1;sketch=1;" parent="1" vertex="1">
          <mxGeometry x="-278" y="1068" width="80" height="30" as="geometry" />
        </mxCell>
        <mxCell id="Iy7pLN3KeixTR69sFVyn-101" value="" style="noEdgeStyle=1;strokeColor=#028090;fontColor=#E4FDE1;sketch=1;labelBackgroundColor=#114B5F;" parent="1" source="Iy7pLN3KeixTR69sFVyn-95" target="Iy7pLN3KeixTR69sFVyn-100" edge="1">
          <mxGeometry x="9" y="453" as="geometry" />
        </mxCell>
        <mxCell id="Iy7pLN3KeixTR69sFVyn-102" value="ARD_D4" style="whiteSpace=wrap;html=1;fillColor=#F45B69;strokeColor=#028090;fontColor=#E4FDE1;sketch=1;" parent="1" vertex="1">
          <mxGeometry x="-438" y="948" width="80" height="30" as="geometry" />
        </mxCell>
        <mxCell id="Iy7pLN3KeixTR69sFVyn-103" value="" style="noEdgeStyle=1;strokeColor=#028090;fontColor=#E4FDE1;sketch=1;labelBackgroundColor=#114B5F;" parent="1" source="Iy7pLN3KeixTR69sFVyn-95" target="Iy7pLN3KeixTR69sFVyn-102" edge="1">
          <mxGeometry x="9" y="453" as="geometry" />
        </mxCell>
        <mxCell id="Iy7pLN3KeixTR69sFVyn-104" value="ARD_D5" style="whiteSpace=wrap;html=1;fillColor=#F45B69;strokeColor=#028090;fontColor=#E4FDE1;sketch=1;" parent="1" vertex="1">
          <mxGeometry x="-328" y="918" width="80" height="30" as="geometry" />
        </mxCell>
        <mxCell id="Iy7pLN3KeixTR69sFVyn-105" value="" style="noEdgeStyle=1;strokeColor=#028090;fontColor=#E4FDE1;sketch=1;labelBackgroundColor=#114B5F;" parent="1" source="Iy7pLN3KeixTR69sFVyn-95" target="Iy7pLN3KeixTR69sFVyn-104" edge="1">
          <mxGeometry x="9" y="453" as="geometry" />
        </mxCell>
        <mxCell id="Iy7pLN3KeixTR69sFVyn-106" value="ARD_D6" style="whiteSpace=wrap;html=1;fillColor=#F45B69;strokeColor=#028090;fontColor=#E4FDE1;sketch=1;" parent="1" vertex="1">
          <mxGeometry x="-308" y="1188" width="80" height="30" as="geometry" />
        </mxCell>
        <mxCell id="Iy7pLN3KeixTR69sFVyn-107" value="" style="noEdgeStyle=1;strokeColor=#028090;fontColor=#E4FDE1;sketch=1;labelBackgroundColor=#114B5F;" parent="1" source="Iy7pLN3KeixTR69sFVyn-95" target="Iy7pLN3KeixTR69sFVyn-106" edge="1">
          <mxGeometry x="9" y="453" as="geometry" />
        </mxCell>
        <mxCell id="Iy7pLN3KeixTR69sFVyn-108" value="ARD_D7" style="whiteSpace=wrap;html=1;fillColor=#F45B69;strokeColor=#028090;fontColor=#E4FDE1;sketch=1;" parent="1" vertex="1">
          <mxGeometry x="-428" y="1088" width="80" height="30" as="geometry" />
        </mxCell>
        <mxCell id="Iy7pLN3KeixTR69sFVyn-109" value="" style="noEdgeStyle=1;strokeColor=#028090;fontColor=#E4FDE1;sketch=1;labelBackgroundColor=#114B5F;" parent="1" source="Iy7pLN3KeixTR69sFVyn-95" target="Iy7pLN3KeixTR69sFVyn-108" edge="1">
          <mxGeometry x="9" y="453" as="geometry" />
        </mxCell>
        <mxCell id="Iy7pLN3KeixTR69sFVyn-110" value="ARD_D8" style="whiteSpace=wrap;html=1;fillColor=#F45B69;strokeColor=#028090;fontColor=#E4FDE1;sketch=1;" parent="1" vertex="1">
          <mxGeometry x="-498" y="1068" width="80" height="30" as="geometry" />
        </mxCell>
        <mxCell id="Iy7pLN3KeixTR69sFVyn-111" value="" style="noEdgeStyle=1;strokeColor=#028090;fontColor=#E4FDE1;sketch=1;labelBackgroundColor=#114B5F;" parent="1" source="Iy7pLN3KeixTR69sFVyn-95" target="Iy7pLN3KeixTR69sFVyn-110" edge="1">
          <mxGeometry x="9" y="453" as="geometry" />
        </mxCell>
        <mxCell id="Iy7pLN3KeixTR69sFVyn-112" value="ARD_D9" style="whiteSpace=wrap;html=1;fillColor=#F45B69;strokeColor=#028090;fontColor=#E4FDE1;sketch=1;" parent="1" vertex="1">
          <mxGeometry x="-758" y="1128" width="80" height="30" as="geometry" />
        </mxCell>
        <mxCell id="Iy7pLN3KeixTR69sFVyn-113" value="" style="noEdgeStyle=1;strokeColor=#028090;fontColor=#E4FDE1;sketch=1;labelBackgroundColor=#114B5F;" parent="1" source="Iy7pLN3KeixTR69sFVyn-95" target="Iy7pLN3KeixTR69sFVyn-112" edge="1">
          <mxGeometry x="9" y="453" as="geometry" />
        </mxCell>
        <mxCell id="Iy7pLN3KeixTR69sFVyn-114" value="ARD_~D9" style="whiteSpace=wrap;html=1;fillColor=#F45B69;strokeColor=#028090;fontColor=#E4FDE1;sketch=1;" parent="1" vertex="1">
          <mxGeometry x="-728" y="1308" width="80" height="30" as="geometry" />
        </mxCell>
        <mxCell id="Iy7pLN3KeixTR69sFVyn-115" value="" style="noEdgeStyle=1;strokeColor=#028090;fontColor=#E4FDE1;sketch=1;labelBackgroundColor=#114B5F;" parent="1" source="Iy7pLN3KeixTR69sFVyn-95" target="Iy7pLN3KeixTR69sFVyn-114" edge="1">
          <mxGeometry x="9" y="453" as="geometry" />
        </mxCell>
        <mxCell id="Iy7pLN3KeixTR69sFVyn-116" value="ARD_~D10" style="whiteSpace=wrap;html=1;fillColor=#F45B69;strokeColor=#028090;fontColor=#E4FDE1;sketch=1;" parent="1" vertex="1">
          <mxGeometry x="-658" y="1378" width="80" height="30" as="geometry" />
        </mxCell>
        <mxCell id="Iy7pLN3KeixTR69sFVyn-117" value="" style="noEdgeStyle=1;strokeColor=#028090;fontColor=#E4FDE1;sketch=1;labelBackgroundColor=#114B5F;" parent="1" source="Iy7pLN3KeixTR69sFVyn-95" target="Iy7pLN3KeixTR69sFVyn-116" edge="1">
          <mxGeometry x="9" y="453" as="geometry" />
        </mxCell>
        <mxCell id="Iy7pLN3KeixTR69sFVyn-118" value="ARD_~D11" style="whiteSpace=wrap;html=1;fillColor=#F45B69;strokeColor=#028090;fontColor=#E4FDE1;sketch=1;" parent="1" vertex="1">
          <mxGeometry x="-588" y="1428" width="80" height="30" as="geometry" />
        </mxCell>
        <mxCell id="Iy7pLN3KeixTR69sFVyn-119" value="" style="noEdgeStyle=1;strokeColor=#028090;fontColor=#E4FDE1;sketch=1;labelBackgroundColor=#114B5F;" parent="1" source="Iy7pLN3KeixTR69sFVyn-95" target="Iy7pLN3KeixTR69sFVyn-118" edge="1">
          <mxGeometry x="9" y="453" as="geometry" />
        </mxCell>
        <mxCell id="Iy7pLN3KeixTR69sFVyn-120" value="ARD_D12" style="whiteSpace=wrap;html=1;fillColor=#F45B69;strokeColor=#028090;fontColor=#E4FDE1;sketch=1;" parent="1" vertex="1">
          <mxGeometry x="-468" y="1338" width="80" height="30" as="geometry" />
        </mxCell>
        <mxCell id="Iy7pLN3KeixTR69sFVyn-121" value="" style="noEdgeStyle=1;strokeColor=#028090;fontColor=#E4FDE1;sketch=1;labelBackgroundColor=#114B5F;" parent="1" source="Iy7pLN3KeixTR69sFVyn-95" target="Iy7pLN3KeixTR69sFVyn-120" edge="1">
          <mxGeometry x="9" y="453" as="geometry" />
        </mxCell>
        <mxCell id="Iy7pLN3KeixTR69sFVyn-122" value="ARD_D13" style="whiteSpace=wrap;html=1;fillColor=#F45B69;strokeColor=#028090;fontColor=#E4FDE1;sketch=1;" parent="1" vertex="1">
          <mxGeometry x="-778" y="1218" width="80" height="30" as="geometry" />
        </mxCell>
        <mxCell id="Iy7pLN3KeixTR69sFVyn-123" value="" style="noEdgeStyle=1;strokeColor=#028090;fontColor=#E4FDE1;sketch=1;labelBackgroundColor=#114B5F;" parent="1" source="Iy7pLN3KeixTR69sFVyn-95" target="Iy7pLN3KeixTR69sFVyn-122" edge="1">
          <mxGeometry x="9" y="453" as="geometry" />
        </mxCell>
        <mxCell id="Iy7pLN3KeixTR69sFVyn-124" value="ARD_GND1" style="whiteSpace=wrap;html=1;fillColor=#F45B69;strokeColor=#028090;fontColor=#E4FDE1;sketch=1;" parent="1" vertex="1">
          <mxGeometry x="-288" y="848" width="80" height="30" as="geometry" />
        </mxCell>
        <mxCell id="Iy7pLN3KeixTR69sFVyn-125" value="" style="noEdgeStyle=1;strokeColor=#028090;fontColor=#E4FDE1;sketch=1;labelBackgroundColor=#114B5F;" parent="1" source="Iy7pLN3KeixTR69sFVyn-95" target="Iy7pLN3KeixTR69sFVyn-124" edge="1">
          <mxGeometry x="9" y="453" as="geometry" />
        </mxCell>
        <mxCell id="Iy7pLN3KeixTR69sFVyn-126" value="ARD_AREF" style="whiteSpace=wrap;html=1;fillColor=#F45B69;strokeColor=#028090;fontColor=#E4FDE1;sketch=1;" parent="1" vertex="1">
          <mxGeometry x="-688" y="1218" width="80" height="30" as="geometry" />
        </mxCell>
        <mxCell id="Iy7pLN3KeixTR69sFVyn-127" value="" style="noEdgeStyle=1;strokeColor=#028090;fontColor=#E4FDE1;sketch=1;labelBackgroundColor=#114B5F;" parent="1" source="Iy7pLN3KeixTR69sFVyn-95" target="Iy7pLN3KeixTR69sFVyn-126" edge="1">
          <mxGeometry x="9" y="453" as="geometry" />
        </mxCell>
        <mxCell id="Iy7pLN3KeixTR69sFVyn-128" value="ARD_I2C_Data" style="whiteSpace=wrap;html=1;fillColor=#F45B69;strokeColor=#028090;fontColor=#E4FDE1;sketch=1;" parent="1" vertex="1">
          <mxGeometry x="-568" y="1348" width="100" height="30" as="geometry" />
        </mxCell>
        <mxCell id="Iy7pLN3KeixTR69sFVyn-129" value="" style="noEdgeStyle=1;strokeColor=#028090;fontColor=#E4FDE1;sketch=1;labelBackgroundColor=#114B5F;" parent="1" source="Iy7pLN3KeixTR69sFVyn-95" target="Iy7pLN3KeixTR69sFVyn-128" edge="1">
          <mxGeometry x="9" y="453" as="geometry" />
        </mxCell>
        <mxCell id="Iy7pLN3KeixTR69sFVyn-130" value="ARD_I2C_Clock" style="whiteSpace=wrap;html=1;fillColor=#F45B69;strokeColor=#028090;fontColor=#E4FDE1;sketch=1;" parent="1" vertex="1">
          <mxGeometry x="-668" y="1128" width="100" height="30" as="geometry" />
        </mxCell>
        <mxCell id="Iy7pLN3KeixTR69sFVyn-131" value="" style="noEdgeStyle=1;strokeColor=#028090;fontColor=#E4FDE1;sketch=1;labelBackgroundColor=#114B5F;" parent="1" source="Iy7pLN3KeixTR69sFVyn-95" target="Iy7pLN3KeixTR69sFVyn-130" edge="1">
          <mxGeometry x="9" y="453" as="geometry" />
        </mxCell>
        <mxCell id="Iy7pLN3KeixTR69sFVyn-132" value="ARD_A0" style="whiteSpace=wrap;html=1;fillColor=#F45B69;strokeColor=#028090;fontColor=#E4FDE1;sketch=1;" parent="1" vertex="1">
          <mxGeometry x="-288" y="978" width="80" height="30" as="geometry" />
        </mxCell>
        <mxCell id="Iy7pLN3KeixTR69sFVyn-133" value="" style="noEdgeStyle=1;strokeColor=#028090;fontColor=#E4FDE1;sketch=1;labelBackgroundColor=#114B5F;" parent="1" source="Iy7pLN3KeixTR69sFVyn-95" target="Iy7pLN3KeixTR69sFVyn-132" edge="1">
          <mxGeometry x="9" y="453" as="geometry" />
        </mxCell>
        <mxCell id="Iy7pLN3KeixTR69sFVyn-134" value="ARD_A1" style="whiteSpace=wrap;html=1;fillColor=#F45B69;strokeColor=#028090;fontColor=#E4FDE1;sketch=1;" parent="1" vertex="1">
          <mxGeometry x="-388" y="1168" width="80" height="30" as="geometry" />
        </mxCell>
        <mxCell id="Iy7pLN3KeixTR69sFVyn-135" value="" style="noEdgeStyle=1;strokeColor=#028090;fontColor=#E4FDE1;sketch=1;labelBackgroundColor=#114B5F;" parent="1" source="Iy7pLN3KeixTR69sFVyn-95" target="Iy7pLN3KeixTR69sFVyn-134" edge="1">
          <mxGeometry x="9" y="453" as="geometry" />
        </mxCell>
        <mxCell id="Iy7pLN3KeixTR69sFVyn-136" value="ARD_A2" style="whiteSpace=wrap;html=1;fillColor=#F45B69;strokeColor=#028090;fontColor=#E4FDE1;sketch=1;" parent="1" vertex="1">
          <mxGeometry x="-228" y="1018" width="80" height="30" as="geometry" />
        </mxCell>
        <mxCell id="Iy7pLN3KeixTR69sFVyn-137" value="" style="noEdgeStyle=1;strokeColor=#028090;fontColor=#E4FDE1;sketch=1;labelBackgroundColor=#114B5F;" parent="1" source="Iy7pLN3KeixTR69sFVyn-95" target="Iy7pLN3KeixTR69sFVyn-136" edge="1">
          <mxGeometry x="9" y="453" as="geometry" />
        </mxCell>
        <mxCell id="Iy7pLN3KeixTR69sFVyn-138" value="ARD_A3" style="whiteSpace=wrap;html=1;fillColor=#F45B69;strokeColor=#028090;fontColor=#E4FDE1;sketch=1;" parent="1" vertex="1">
          <mxGeometry x="-388" y="888" width="80" height="30" as="geometry" />
        </mxCell>
        <mxCell id="Iy7pLN3KeixTR69sFVyn-139" value="" style="noEdgeStyle=1;strokeColor=#028090;fontColor=#E4FDE1;sketch=1;labelBackgroundColor=#114B5F;" parent="1" source="Iy7pLN3KeixTR69sFVyn-95" target="Iy7pLN3KeixTR69sFVyn-138" edge="1">
          <mxGeometry x="9" y="453" as="geometry" />
        </mxCell>
        <mxCell id="Iy7pLN3KeixTR69sFVyn-140" value="ARD_A4" style="whiteSpace=wrap;html=1;fillColor=#F45B69;strokeColor=#028090;fontColor=#E4FDE1;sketch=1;" parent="1" vertex="1">
          <mxGeometry x="-358" y="1068" width="80" height="30" as="geometry" />
        </mxCell>
        <mxCell id="Iy7pLN3KeixTR69sFVyn-141" value="" style="noEdgeStyle=1;strokeColor=#028090;fontColor=#E4FDE1;sketch=1;labelBackgroundColor=#114B5F;" parent="1" source="Iy7pLN3KeixTR69sFVyn-95" target="Iy7pLN3KeixTR69sFVyn-140" edge="1">
          <mxGeometry x="9" y="453" as="geometry" />
        </mxCell>
        <mxCell id="Iy7pLN3KeixTR69sFVyn-142" value="ARD_A5" style="whiteSpace=wrap;html=1;fillColor=#F45B69;strokeColor=#028090;fontColor=#E4FDE1;sketch=1;" parent="1" vertex="1">
          <mxGeometry x="-358" y="988" width="80" height="30" as="geometry" />
        </mxCell>
        <mxCell id="Iy7pLN3KeixTR69sFVyn-143" value="" style="noEdgeStyle=1;strokeColor=#028090;fontColor=#E4FDE1;sketch=1;labelBackgroundColor=#114B5F;" parent="1" source="Iy7pLN3KeixTR69sFVyn-95" target="Iy7pLN3KeixTR69sFVyn-142" edge="1">
          <mxGeometry x="9" y="453" as="geometry" />
        </mxCell>
        <mxCell id="Iy7pLN3KeixTR69sFVyn-144" value="ARD_NC" style="whiteSpace=wrap;html=1;fillColor=#F45B69;strokeColor=#028090;fontColor=#E4FDE1;sketch=1;" parent="1" vertex="1">
          <mxGeometry x="-608" y="1208" width="80" height="30" as="geometry" />
        </mxCell>
        <mxCell id="Iy7pLN3KeixTR69sFVyn-145" value="" style="noEdgeStyle=1;strokeColor=#028090;fontColor=#E4FDE1;sketch=1;labelBackgroundColor=#114B5F;" parent="1" source="Iy7pLN3KeixTR69sFVyn-95" target="Iy7pLN3KeixTR69sFVyn-144" edge="1">
          <mxGeometry x="9" y="453" as="geometry" />
        </mxCell>
        <mxCell id="Iy7pLN3KeixTR69sFVyn-146" value="ARD_IOREF" style="whiteSpace=wrap;html=1;fillColor=#F45B69;strokeColor=#028090;fontColor=#E4FDE1;sketch=1;" parent="1" vertex="1">
          <mxGeometry x="-368" y="1328" width="80" height="30" as="geometry" />
        </mxCell>
        <mxCell id="Iy7pLN3KeixTR69sFVyn-147" value="" style="noEdgeStyle=1;strokeColor=#028090;fontColor=#E4FDE1;sketch=1;labelBackgroundColor=#114B5F;" parent="1" source="Iy7pLN3KeixTR69sFVyn-95" target="Iy7pLN3KeixTR69sFVyn-146" edge="1">
          <mxGeometry x="9" y="453" as="geometry" />
        </mxCell>
        <mxCell id="Iy7pLN3KeixTR69sFVyn-148" value="ARD_RESET" style="whiteSpace=wrap;html=1;fillColor=#F45B69;strokeColor=#028090;fontColor=#E4FDE1;sketch=1;" parent="1" vertex="1">
          <mxGeometry x="-528" y="1268" width="90" height="30" as="geometry" />
        </mxCell>
        <mxCell id="Iy7pLN3KeixTR69sFVyn-149" value="" style="noEdgeStyle=1;strokeColor=#028090;fontColor=#E4FDE1;sketch=1;labelBackgroundColor=#114B5F;" parent="1" source="Iy7pLN3KeixTR69sFVyn-95" target="Iy7pLN3KeixTR69sFVyn-148" edge="1">
          <mxGeometry x="9" y="453" as="geometry" />
        </mxCell>
        <mxCell id="Iy7pLN3KeixTR69sFVyn-150" value="ARD_3V3" style="whiteSpace=wrap;html=1;fillColor=#F45B69;strokeColor=#028090;fontColor=#E4FDE1;sketch=1;" parent="1" vertex="1">
          <mxGeometry x="-528" y="918" width="80" height="30" as="geometry" />
        </mxCell>
        <mxCell id="Iy7pLN3KeixTR69sFVyn-151" value="" style="noEdgeStyle=1;strokeColor=#028090;fontColor=#E4FDE1;sketch=1;labelBackgroundColor=#114B5F;" parent="1" source="Iy7pLN3KeixTR69sFVyn-95" target="Iy7pLN3KeixTR69sFVyn-150" edge="1">
          <mxGeometry x="9" y="453" as="geometry" />
        </mxCell>
        <mxCell id="Iy7pLN3KeixTR69sFVyn-152" value="ARD_5V" style="whiteSpace=wrap;html=1;fillColor=#F45B69;strokeColor=#028090;fontColor=#E4FDE1;sketch=1;" parent="1" vertex="1">
          <mxGeometry x="-628" y="1298" width="80" height="30" as="geometry" />
        </mxCell>
        <mxCell id="Iy7pLN3KeixTR69sFVyn-153" value="" style="noEdgeStyle=1;strokeColor=#028090;fontColor=#E4FDE1;sketch=1;labelBackgroundColor=#114B5F;" parent="1" source="Iy7pLN3KeixTR69sFVyn-95" target="Iy7pLN3KeixTR69sFVyn-152" edge="1">
          <mxGeometry x="9" y="453" as="geometry" />
        </mxCell>
        <mxCell id="Iy7pLN3KeixTR69sFVyn-154" value="ARD_GND2" style="whiteSpace=wrap;html=1;fillColor=#F45B69;strokeColor=#028090;fontColor=#E4FDE1;sketch=1;" parent="1" vertex="1">
          <mxGeometry x="-708" y="1048" width="80" height="30" as="geometry" />
        </mxCell>
        <mxCell id="Iy7pLN3KeixTR69sFVyn-155" value="" style="noEdgeStyle=1;strokeColor=#028090;fontColor=#E4FDE1;sketch=1;labelBackgroundColor=#114B5F;" parent="1" source="Iy7pLN3KeixTR69sFVyn-95" target="Iy7pLN3KeixTR69sFVyn-154" edge="1">
          <mxGeometry x="9" y="453" as="geometry" />
        </mxCell>
        <mxCell id="Iy7pLN3KeixTR69sFVyn-156" value="ARD_GND3" style="whiteSpace=wrap;html=1;fillColor=#F45B69;strokeColor=#028090;fontColor=#E4FDE1;sketch=1;" parent="1" vertex="1">
          <mxGeometry x="-408" y="1418" width="80" height="30" as="geometry" />
        </mxCell>
        <mxCell id="Iy7pLN3KeixTR69sFVyn-157" value="" style="noEdgeStyle=1;strokeColor=#028090;fontColor=#E4FDE1;sketch=1;labelBackgroundColor=#114B5F;" parent="1" source="Iy7pLN3KeixTR69sFVyn-95" target="Iy7pLN3KeixTR69sFVyn-156" edge="1">
          <mxGeometry x="9" y="453" as="geometry" />
        </mxCell>
        <mxCell id="Iy7pLN3KeixTR69sFVyn-158" value="ARD_5V_VIN" style="whiteSpace=wrap;html=1;fillColor=#F45B69;strokeColor=#028090;fontColor=#E4FDE1;sketch=1;" parent="1" vertex="1">
          <mxGeometry x="-498" y="1428" width="90" height="30" as="geometry" />
        </mxCell>
        <mxCell id="Iy7pLN3KeixTR69sFVyn-159" value="" style="noEdgeStyle=1;strokeColor=#028090;fontColor=#E4FDE1;sketch=1;labelBackgroundColor=#114B5F;" parent="1" source="Iy7pLN3KeixTR69sFVyn-95" target="Iy7pLN3KeixTR69sFVyn-158" edge="1">
          <mxGeometry x="9" y="453" as="geometry" />
        </mxCell>
        <mxCell id="Iy7pLN3KeixTR69sFVyn-160" value="DHT11_Sensor" style="whiteSpace=wrap;html=1;fillColor=#F45B69;strokeColor=#028090;fontColor=#E4FDE1;sketch=1;" parent="1" vertex="1">
          <mxGeometry x="-48" y="1478" width="100" height="30" as="geometry" />
        </mxCell>
        <mxCell id="Iy7pLN3KeixTR69sFVyn-161" value="SIGNAL" style="whiteSpace=wrap;html=1;fillColor=#F45B69;strokeColor=#028090;fontColor=#E4FDE1;sketch=1;" parent="1" vertex="1">
          <mxGeometry x="-98" y="1628" width="80" height="30" as="geometry" />
        </mxCell>
        <mxCell id="Iy7pLN3KeixTR69sFVyn-162" value="" style="noEdgeStyle=1;strokeColor=#028090;fontColor=#E4FDE1;sketch=1;labelBackgroundColor=#114B5F;" parent="1" source="Iy7pLN3KeixTR69sFVyn-160" target="Iy7pLN3KeixTR69sFVyn-161" edge="1">
          <mxGeometry x="-875" y="-535" as="geometry" />
        </mxCell>
        <mxCell id="Iy7pLN3KeixTR69sFVyn-163" value="5V_In" style="whiteSpace=wrap;html=1;fillColor=#F45B69;strokeColor=#028090;fontColor=#E4FDE1;sketch=1;" parent="1" vertex="1">
          <mxGeometry x="2" y="1648" width="80" height="30" as="geometry" />
        </mxCell>
        <mxCell id="Iy7pLN3KeixTR69sFVyn-164" value="" style="noEdgeStyle=1;strokeColor=#028090;fontColor=#E4FDE1;sketch=1;labelBackgroundColor=#114B5F;" parent="1" source="Iy7pLN3KeixTR69sFVyn-160" target="Iy7pLN3KeixTR69sFVyn-163" edge="1">
          <mxGeometry x="-875" y="-535" as="geometry" />
        </mxCell>
        <mxCell id="Iy7pLN3KeixTR69sFVyn-165" value="Ground_Out" style="whiteSpace=wrap;html=1;fillColor=#F45B69;strokeColor=#028090;fontColor=#E4FDE1;sketch=1;" parent="1" vertex="1">
          <mxGeometry x="92" y="1588" width="80" height="30" as="geometry" />
        </mxCell>
        <mxCell id="Iy7pLN3KeixTR69sFVyn-166" value="" style="noEdgeStyle=1;strokeColor=#028090;fontColor=#E4FDE1;sketch=1;labelBackgroundColor=#114B5F;" parent="1" source="Iy7pLN3KeixTR69sFVyn-160" target="Iy7pLN3KeixTR69sFVyn-165" edge="1">
          <mxGeometry x="-875" y="-535" as="geometry" />
        </mxCell>
        <mxCell id="Iy7pLN3KeixTR69sFVyn-167" value="PiRTC" style="whiteSpace=wrap;html=1;fillColor=#F45B69;strokeColor=#028090;fontColor=#E4FDE1;sketch=1;" parent="1" vertex="1">
          <mxGeometry x="432" y="1228" width="80" height="30" as="geometry" />
        </mxCell>
        <mxCell id="Iy7pLN3KeixTR69sFVyn-169" value="" style="noEdgeStyle=1;strokeColor=#028090;fontColor=#E4FDE1;sketch=1;labelBackgroundColor=#114B5F;entryX=0.163;entryY=0.067;entryDx=0;entryDy=0;entryPerimeter=0;" parent="1" source="Iy7pLN3KeixTR69sFVyn-167" target="pqWbWPmqw7E1unRh8ar--255" edge="1">
          <mxGeometry x="-520" y="-40" as="geometry" />
        </mxCell>
        <mxCell id="Iy7pLN3KeixTR69sFVyn-171" value="" style="noEdgeStyle=1;strokeColor=#028090;fontColor=#E4FDE1;sketch=1;labelBackgroundColor=#114B5F;entryX=0.275;entryY=-0.033;entryDx=0;entryDy=0;entryPerimeter=0;" parent="1" source="Iy7pLN3KeixTR69sFVyn-167" target="pqWbWPmqw7E1unRh8ar--312" edge="1">
          <mxGeometry x="-520" y="-40" as="geometry" />
        </mxCell>
        <mxCell id="Iy7pLN3KeixTR69sFVyn-173" value="" style="noEdgeStyle=1;strokeColor=#028090;fontColor=#E4FDE1;sketch=1;labelBackgroundColor=#114B5F;" parent="1" source="Iy7pLN3KeixTR69sFVyn-167" target="pqWbWPmqw7E1unRh8ar--258" edge="1">
          <mxGeometry x="-520" y="-40" as="geometry" />
        </mxCell>
        <mxCell id="Iy7pLN3KeixTR69sFVyn-175" value="" style="noEdgeStyle=1;strokeColor=#028090;fontColor=#E4FDE1;sketch=1;labelBackgroundColor=#114B5F;" parent="1" source="Iy7pLN3KeixTR69sFVyn-167" target="pqWbWPmqw7E1unRh8ar--317" edge="1">
          <mxGeometry x="-520" y="-40" as="geometry">
            <mxPoint x="552" y="1243" as="targetPoint" />
          </mxGeometry>
        </mxCell>
        <mxCell id="Iy7pLN3KeixTR69sFVyn-177" value="" style="noEdgeStyle=1;strokeColor=#028090;fontColor=#E4FDE1;sketch=1;labelBackgroundColor=#114B5F;" parent="1" source="Iy7pLN3KeixTR69sFVyn-167" target="pqWbWPmqw7E1unRh8ar--261" edge="1">
          <mxGeometry x="-520" y="-40" as="geometry" />
        </mxCell>
        <mxCell id="Iy7pLN3KeixTR69sFVyn-179" value="" style="noEdgeStyle=1;strokeColor=#028090;fontColor=#E4FDE1;sketch=1;labelBackgroundColor=#114B5F;" parent="1" source="Iy7pLN3KeixTR69sFVyn-167" target="pqWbWPmqw7E1unRh8ar--315" edge="1">
          <mxGeometry x="-520" y="-40" as="geometry" />
        </mxCell>
        <mxCell id="Iy7pLN3KeixTR69sFVyn-181" value="Soil" style="whiteSpace=wrap;html=1;fillColor=#F45B69;strokeColor=#028090;fontColor=#E4FDE1;sketch=1;" parent="1" vertex="1">
          <mxGeometry x="-38" y="988" width="80" height="30" as="geometry" />
        </mxCell>
        <mxCell id="Iy7pLN3KeixTR69sFVyn-182" value="" style="noEdgeStyle=1;strokeColor=#028090;fontColor=#E4FDE1;sketch=1;labelBackgroundColor=#114B5F;" parent="1" source="v3TkLxO8rTcV8y7XoOtQ-2" target="Iy7pLN3KeixTR69sFVyn-181" edge="1">
          <mxGeometry x="-520" y="-40" as="geometry" />
        </mxCell>
        <mxCell id="Iy7pLN3KeixTR69sFVyn-183" value="UV_S" style="whiteSpace=wrap;html=1;fillColor=#F45B69;strokeColor=#028090;fontColor=#E4FDE1;sketch=1;" parent="1" vertex="1">
          <mxGeometry x="72" y="1198" width="80" height="30" as="geometry" />
        </mxCell>
        <mxCell id="Iy7pLN3KeixTR69sFVyn-184" value="" style="noEdgeStyle=1;strokeColor=#028090;fontColor=#E4FDE1;sketch=1;labelBackgroundColor=#114B5F;" parent="1" source="v3TkLxO8rTcV8y7XoOtQ-2" target="Iy7pLN3KeixTR69sFVyn-183" edge="1">
          <mxGeometry x="-520" y="-40" as="geometry" />
        </mxCell>
        <mxCell id="Iy7pLN3KeixTR69sFVyn-185" value="LGT_S" style="whiteSpace=wrap;html=1;fillColor=#F45B69;strokeColor=#028090;fontColor=#E4FDE1;sketch=1;" parent="1" vertex="1">
          <mxGeometry x="22" y="1058" width="80" height="30" as="geometry" />
        </mxCell>
        <mxCell id="Iy7pLN3KeixTR69sFVyn-186" value="" style="noEdgeStyle=1;strokeColor=#028090;fontColor=#E4FDE1;sketch=1;labelBackgroundColor=#114B5F;" parent="1" source="v3TkLxO8rTcV8y7XoOtQ-2" target="Iy7pLN3KeixTR69sFVyn-185" edge="1">
          <mxGeometry x="-520" y="-40" as="geometry" />
        </mxCell>
        <mxCell id="Iy7pLN3KeixTR69sFVyn-187" value="MOT_S" style="whiteSpace=wrap;html=1;fillColor=#F45B69;strokeColor=#028090;fontColor=#E4FDE1;sketch=1;" parent="1" vertex="1">
          <mxGeometry x="2" y="1158" width="80" height="30" as="geometry" />
        </mxCell>
        <mxCell id="Iy7pLN3KeixTR69sFVyn-188" value="" style="noEdgeStyle=1;strokeColor=#028090;fontColor=#E4FDE1;sketch=1;labelBackgroundColor=#114B5F;" parent="1" source="v3TkLxO8rTcV8y7XoOtQ-2" target="Iy7pLN3KeixTR69sFVyn-187" edge="1">
          <mxGeometry x="-520" y="-40" as="geometry" />
        </mxCell>
        <mxCell id="Iy7pLN3KeixTR69sFVyn-189" value="CAM" style="whiteSpace=wrap;html=1;fillColor=#F45B69;strokeColor=#028090;fontColor=#E4FDE1;sketch=1;" parent="1" vertex="1">
          <mxGeometry x="-408" y="788" width="80" height="30" as="geometry" />
        </mxCell>
        <mxCell id="Iy7pLN3KeixTR69sFVyn-190" value="CAM_D0" style="whiteSpace=wrap;html=1;fillColor=#F45B69;strokeColor=#028090;fontColor=#E4FDE1;sketch=1;" parent="1" vertex="1">
          <mxGeometry x="-298" y="708" width="80" height="30" as="geometry" />
        </mxCell>
        <mxCell id="Iy7pLN3KeixTR69sFVyn-191" value="" style="noEdgeStyle=1;strokeColor=#028090;fontColor=#E4FDE1;sketch=1;labelBackgroundColor=#114B5F;" parent="1" source="Iy7pLN3KeixTR69sFVyn-189" target="Iy7pLN3KeixTR69sFVyn-190" edge="1">
          <mxGeometry x="-520" y="-40" as="geometry" />
        </mxCell>
        <mxCell id="Iy7pLN3KeixTR69sFVyn-192" value="CAM_D1" style="whiteSpace=wrap;html=1;fillColor=#F45B69;strokeColor=#028090;fontColor=#E4FDE1;sketch=1;" parent="1" vertex="1">
          <mxGeometry x="-518" y="998" width="80" height="30" as="geometry" />
        </mxCell>
        <mxCell id="Iy7pLN3KeixTR69sFVyn-193" value="" style="noEdgeStyle=1;strokeColor=#028090;fontColor=#E4FDE1;sketch=1;labelBackgroundColor=#114B5F;" parent="1" source="Iy7pLN3KeixTR69sFVyn-189" target="Iy7pLN3KeixTR69sFVyn-192" edge="1">
          <mxGeometry x="-520" y="-40" as="geometry" />
        </mxCell>
        <mxCell id="Iy7pLN3KeixTR69sFVyn-194" value="CAM_D2" style="whiteSpace=wrap;html=1;fillColor=#F45B69;strokeColor=#028090;fontColor=#E4FDE1;sketch=1;" parent="1" vertex="1">
          <mxGeometry x="-318" y="778" width="80" height="30" as="geometry" />
        </mxCell>
        <mxCell id="Iy7pLN3KeixTR69sFVyn-195" value="" style="noEdgeStyle=1;strokeColor=#028090;fontColor=#E4FDE1;sketch=1;labelBackgroundColor=#114B5F;" parent="1" source="Iy7pLN3KeixTR69sFVyn-189" target="Iy7pLN3KeixTR69sFVyn-194" edge="1">
          <mxGeometry x="-520" y="-40" as="geometry" />
        </mxCell>
        <mxCell id="Iy7pLN3KeixTR69sFVyn-196" value="CAM_D3" style="whiteSpace=wrap;html=1;fillColor=#F45B69;strokeColor=#028090;fontColor=#E4FDE1;sketch=1;" parent="1" vertex="1">
          <mxGeometry x="-478" y="648" width="80" height="30" as="geometry" />
        </mxCell>
        <mxCell id="Iy7pLN3KeixTR69sFVyn-197" value="" style="noEdgeStyle=1;strokeColor=#028090;fontColor=#E4FDE1;sketch=1;labelBackgroundColor=#114B5F;" parent="1" source="Iy7pLN3KeixTR69sFVyn-189" target="Iy7pLN3KeixTR69sFVyn-196" edge="1">
          <mxGeometry x="-520" y="-40" as="geometry" />
        </mxCell>
        <mxCell id="Iy7pLN3KeixTR69sFVyn-198" value="CAM_D4" style="whiteSpace=wrap;html=1;fillColor=#F45B69;strokeColor=#028090;fontColor=#E4FDE1;sketch=1;" parent="1" vertex="1">
          <mxGeometry x="-548" y="768" width="80" height="30" as="geometry" />
        </mxCell>
        <mxCell id="Iy7pLN3KeixTR69sFVyn-199" value="" style="noEdgeStyle=1;strokeColor=#028090;fontColor=#E4FDE1;sketch=1;labelBackgroundColor=#114B5F;" parent="1" source="Iy7pLN3KeixTR69sFVyn-189" target="Iy7pLN3KeixTR69sFVyn-198" edge="1">
          <mxGeometry x="-520" y="-40" as="geometry" />
        </mxCell>
        <mxCell id="Iy7pLN3KeixTR69sFVyn-200" value="CAM_D5" style="whiteSpace=wrap;html=1;fillColor=#F45B69;strokeColor=#028090;fontColor=#E4FDE1;sketch=1;" parent="1" vertex="1">
          <mxGeometry x="-228" y="738" width="80" height="30" as="geometry" />
        </mxCell>
        <mxCell id="Iy7pLN3KeixTR69sFVyn-201" value="" style="noEdgeStyle=1;strokeColor=#028090;fontColor=#E4FDE1;sketch=1;labelBackgroundColor=#114B5F;" parent="1" source="Iy7pLN3KeixTR69sFVyn-189" target="Iy7pLN3KeixTR69sFVyn-200" edge="1">
          <mxGeometry x="-520" y="-40" as="geometry" />
        </mxCell>
        <mxCell id="Iy7pLN3KeixTR69sFVyn-202" value="CAM_D6" style="whiteSpace=wrap;html=1;fillColor=#F45B69;strokeColor=#028090;fontColor=#E4FDE1;sketch=1;" parent="1" vertex="1">
          <mxGeometry x="-428" y="1018" width="80" height="30" as="geometry" />
        </mxCell>
        <mxCell id="Iy7pLN3KeixTR69sFVyn-203" value="" style="noEdgeStyle=1;strokeColor=#028090;fontColor=#E4FDE1;sketch=1;labelBackgroundColor=#114B5F;" parent="1" source="Iy7pLN3KeixTR69sFVyn-189" target="Iy7pLN3KeixTR69sFVyn-202" edge="1">
          <mxGeometry x="-520" y="-40" as="geometry" />
        </mxCell>
        <mxCell id="Iy7pLN3KeixTR69sFVyn-204" value="CAM_D7" style="whiteSpace=wrap;html=1;fillColor=#F45B69;strokeColor=#028090;fontColor=#E4FDE1;sketch=1;" parent="1" vertex="1">
          <mxGeometry x="-588" y="868" width="80" height="30" as="geometry" />
        </mxCell>
        <mxCell id="Iy7pLN3KeixTR69sFVyn-205" value="" style="noEdgeStyle=1;strokeColor=#028090;fontColor=#E4FDE1;sketch=1;labelBackgroundColor=#114B5F;" parent="1" source="Iy7pLN3KeixTR69sFVyn-189" target="Iy7pLN3KeixTR69sFVyn-204" edge="1">
          <mxGeometry x="-520" y="-40" as="geometry" />
        </mxCell>
        <mxCell id="Iy7pLN3KeixTR69sFVyn-206" value="CAM_RESET" style="whiteSpace=wrap;html=1;fillColor=#F45B69;strokeColor=#028090;fontColor=#E4FDE1;sketch=1;" parent="1" vertex="1">
          <mxGeometry x="-638" y="778" width="90" height="30" as="geometry" />
        </mxCell>
        <mxCell id="Iy7pLN3KeixTR69sFVyn-207" value="" style="noEdgeStyle=1;strokeColor=#028090;fontColor=#E4FDE1;sketch=1;labelBackgroundColor=#114B5F;" parent="1" source="Iy7pLN3KeixTR69sFVyn-189" target="Iy7pLN3KeixTR69sFVyn-206" edge="1">
          <mxGeometry x="-520" y="-40" as="geometry" />
        </mxCell>
        <mxCell id="Iy7pLN3KeixTR69sFVyn-208" value="CAM_PWDN" style="whiteSpace=wrap;html=1;fillColor=#F45B69;strokeColor=#028090;fontColor=#E4FDE1;sketch=1;" parent="1" vertex="1">
          <mxGeometry x="-328" y="618" width="90" height="30" as="geometry" />
        </mxCell>
        <mxCell id="Iy7pLN3KeixTR69sFVyn-209" value="" style="noEdgeStyle=1;strokeColor=#028090;fontColor=#E4FDE1;sketch=1;labelBackgroundColor=#114B5F;" parent="1" source="Iy7pLN3KeixTR69sFVyn-189" target="Iy7pLN3KeixTR69sFVyn-208" edge="1">
          <mxGeometry x="-520" y="-40" as="geometry" />
        </mxCell>
        <mxCell id="Iy7pLN3KeixTR69sFVyn-210" value="CAM_VSYNC" style="whiteSpace=wrap;html=1;fillColor=#F45B69;strokeColor=#028090;fontColor=#E4FDE1;sketch=1;" parent="1" vertex="1">
          <mxGeometry x="-208" y="838" width="90" height="30" as="geometry" />
        </mxCell>
        <mxCell id="Iy7pLN3KeixTR69sFVyn-211" value="" style="noEdgeStyle=1;strokeColor=#028090;fontColor=#E4FDE1;sketch=1;labelBackgroundColor=#114B5F;" parent="1" source="Iy7pLN3KeixTR69sFVyn-189" target="Iy7pLN3KeixTR69sFVyn-210" edge="1">
          <mxGeometry x="-520" y="-40" as="geometry" />
        </mxCell>
        <mxCell id="Iy7pLN3KeixTR69sFVyn-212" value="CAM_HREF" style="whiteSpace=wrap;html=1;fillColor=#F45B69;strokeColor=#028090;fontColor=#E4FDE1;sketch=1;" parent="1" vertex="1">
          <mxGeometry x="-628" y="928" width="80" height="30" as="geometry" />
        </mxCell>
        <mxCell id="Iy7pLN3KeixTR69sFVyn-213" value="" style="noEdgeStyle=1;strokeColor=#028090;fontColor=#E4FDE1;sketch=1;labelBackgroundColor=#114B5F;" parent="1" source="Iy7pLN3KeixTR69sFVyn-189" target="Iy7pLN3KeixTR69sFVyn-212" edge="1">
          <mxGeometry x="-520" y="-40" as="geometry" />
        </mxCell>
        <mxCell id="Iy7pLN3KeixTR69sFVyn-214" value="CAM_PCLK" style="whiteSpace=wrap;html=1;fillColor=#F45B69;strokeColor=#028090;fontColor=#E4FDE1;sketch=1;" parent="1" vertex="1">
          <mxGeometry x="-158" y="918" width="80" height="30" as="geometry" />
        </mxCell>
        <mxCell id="Iy7pLN3KeixTR69sFVyn-215" value="" style="noEdgeStyle=1;strokeColor=#028090;fontColor=#E4FDE1;sketch=1;labelBackgroundColor=#114B5F;" parent="1" source="Iy7pLN3KeixTR69sFVyn-189" target="Iy7pLN3KeixTR69sFVyn-214" edge="1">
          <mxGeometry x="-520" y="-40" as="geometry" />
        </mxCell>
        <mxCell id="Iy7pLN3KeixTR69sFVyn-216" value="CAM_XCLK" style="whiteSpace=wrap;html=1;fillColor=#F45B69;strokeColor=#028090;fontColor=#E4FDE1;sketch=1;" parent="1" vertex="1">
          <mxGeometry x="-238" y="598" width="80" height="30" as="geometry" />
        </mxCell>
        <mxCell id="Iy7pLN3KeixTR69sFVyn-217" value="" style="noEdgeStyle=1;strokeColor=#028090;fontColor=#E4FDE1;sketch=1;labelBackgroundColor=#114B5F;" parent="1" source="Iy7pLN3KeixTR69sFVyn-189" target="Iy7pLN3KeixTR69sFVyn-216" edge="1">
          <mxGeometry x="-520" y="-40" as="geometry" />
        </mxCell>
        <mxCell id="Iy7pLN3KeixTR69sFVyn-218" value="CAM_SIOC" style="whiteSpace=wrap;html=1;fillColor=#F45B69;strokeColor=#028090;fontColor=#E4FDE1;sketch=1;" parent="1" vertex="1">
          <mxGeometry x="-478" y="748" width="80" height="30" as="geometry" />
        </mxCell>
        <mxCell id="Iy7pLN3KeixTR69sFVyn-219" value="" style="noEdgeStyle=1;strokeColor=#028090;fontColor=#E4FDE1;sketch=1;labelBackgroundColor=#114B5F;" parent="1" source="Iy7pLN3KeixTR69sFVyn-189" target="Iy7pLN3KeixTR69sFVyn-218" edge="1">
          <mxGeometry x="-520" y="-40" as="geometry" />
        </mxCell>
        <mxCell id="Iy7pLN3KeixTR69sFVyn-220" value="CAM_SIOD" style="whiteSpace=wrap;html=1;fillColor=#F45B69;strokeColor=#028090;fontColor=#E4FDE1;sketch=1;" parent="1" vertex="1">
          <mxGeometry x="-498" y="848" width="80" height="30" as="geometry" />
        </mxCell>
        <mxCell id="Iy7pLN3KeixTR69sFVyn-221" value="" style="noEdgeStyle=1;strokeColor=#028090;fontColor=#E4FDE1;sketch=1;labelBackgroundColor=#114B5F;" parent="1" source="Iy7pLN3KeixTR69sFVyn-189" target="Iy7pLN3KeixTR69sFVyn-220" edge="1">
          <mxGeometry x="-520" y="-40" as="geometry" />
        </mxCell>
        <mxCell id="Iy7pLN3KeixTR69sFVyn-222" value="CAM_GND" style="whiteSpace=wrap;html=1;fillColor=#F45B69;strokeColor=#028090;fontColor=#E4FDE1;sketch=1;" parent="1" vertex="1">
          <mxGeometry x="-388" y="648" width="80" height="30" as="geometry" />
        </mxCell>
        <mxCell id="Iy7pLN3KeixTR69sFVyn-223" value="" style="noEdgeStyle=1;strokeColor=#028090;fontColor=#E4FDE1;sketch=1;labelBackgroundColor=#114B5F;" parent="1" source="Iy7pLN3KeixTR69sFVyn-189" target="Iy7pLN3KeixTR69sFVyn-222" edge="1">
          <mxGeometry x="-520" y="-40" as="geometry" />
        </mxCell>
        <mxCell id="Iy7pLN3KeixTR69sFVyn-224" value="CAM_3v3" style="whiteSpace=wrap;html=1;fillColor=#F45B69;strokeColor=#028090;fontColor=#E4FDE1;sketch=1;" parent="1" vertex="1">
          <mxGeometry x="-578" y="688" width="80" height="30" as="geometry" />
        </mxCell>
        <mxCell id="Iy7pLN3KeixTR69sFVyn-225" value="" style="noEdgeStyle=1;strokeColor=#028090;fontColor=#E4FDE1;sketch=1;labelBackgroundColor=#114B5F;" parent="1" source="Iy7pLN3KeixTR69sFVyn-189" target="Iy7pLN3KeixTR69sFVyn-224" edge="1">
          <mxGeometry x="-520" y="-40" as="geometry" />
        </mxCell>
        <mxCell id="Iy7pLN3KeixTR69sFVyn-227" value="" style="noEdgeStyle=1;strokeColor=#028090;fontColor=#E4FDE1;sketch=1;labelBackgroundColor=#114B5F;" parent="1" source="Iy7pLN3KeixTR69sFVyn-190" target="Iy7pLN3KeixTR69sFVyn-132" edge="1">
          <mxGeometry x="-520" y="-40" as="geometry" />
        </mxCell>
        <mxCell id="Iy7pLN3KeixTR69sFVyn-229" value="" style="noEdgeStyle=1;strokeColor=#028090;fontColor=#E4FDE1;sketch=1;labelBackgroundColor=#114B5F;" parent="1" source="Iy7pLN3KeixTR69sFVyn-192" target="Iy7pLN3KeixTR69sFVyn-134" edge="1">
          <mxGeometry x="-520" y="-40" as="geometry" />
        </mxCell>
        <mxCell id="Iy7pLN3KeixTR69sFVyn-231" value="" style="noEdgeStyle=1;strokeColor=#028090;fontColor=#E4FDE1;sketch=1;labelBackgroundColor=#114B5F;" parent="1" source="Iy7pLN3KeixTR69sFVyn-194" target="Iy7pLN3KeixTR69sFVyn-136" edge="1">
          <mxGeometry x="-520" y="-40" as="geometry" />
        </mxCell>
        <mxCell id="Iy7pLN3KeixTR69sFVyn-233" value="" style="noEdgeStyle=1;strokeColor=#028090;fontColor=#E4FDE1;sketch=1;labelBackgroundColor=#114B5F;" parent="1" source="Iy7pLN3KeixTR69sFVyn-196" target="Iy7pLN3KeixTR69sFVyn-138" edge="1">
          <mxGeometry x="-520" y="-40" as="geometry" />
        </mxCell>
        <mxCell id="Iy7pLN3KeixTR69sFVyn-235" value="" style="noEdgeStyle=1;strokeColor=#028090;fontColor=#E4FDE1;sketch=1;labelBackgroundColor=#114B5F;" parent="1" source="Iy7pLN3KeixTR69sFVyn-198" target="Iy7pLN3KeixTR69sFVyn-102" edge="1">
          <mxGeometry x="-520" y="-40" as="geometry" />
        </mxCell>
        <mxCell id="Iy7pLN3KeixTR69sFVyn-237" value="" style="noEdgeStyle=1;strokeColor=#028090;fontColor=#E4FDE1;sketch=1;labelBackgroundColor=#114B5F;" parent="1" source="Iy7pLN3KeixTR69sFVyn-200" target="Iy7pLN3KeixTR69sFVyn-104" edge="1">
          <mxGeometry x="-520" y="-40" as="geometry" />
        </mxCell>
        <mxCell id="Iy7pLN3KeixTR69sFVyn-239" value="" style="noEdgeStyle=1;strokeColor=#028090;fontColor=#E4FDE1;sketch=1;labelBackgroundColor=#114B5F;" parent="1" source="Iy7pLN3KeixTR69sFVyn-202" target="Iy7pLN3KeixTR69sFVyn-106" edge="1">
          <mxGeometry x="-520" y="-40" as="geometry" />
        </mxCell>
        <mxCell id="Iy7pLN3KeixTR69sFVyn-241" value="" style="noEdgeStyle=1;strokeColor=#028090;fontColor=#E4FDE1;sketch=1;labelBackgroundColor=#114B5F;" parent="1" source="Iy7pLN3KeixTR69sFVyn-204" target="Iy7pLN3KeixTR69sFVyn-108" edge="1">
          <mxGeometry x="-520" y="-40" as="geometry" />
        </mxCell>
        <mxCell id="Iy7pLN3KeixTR69sFVyn-243" value="" style="noEdgeStyle=1;strokeColor=#028090;fontColor=#E4FDE1;sketch=1;labelBackgroundColor=#114B5F;" parent="1" source="Iy7pLN3KeixTR69sFVyn-206" target="Iy7pLN3KeixTR69sFVyn-150" edge="1">
          <mxGeometry x="-520" y="-40" as="geometry" />
        </mxCell>
        <mxCell id="Iy7pLN3KeixTR69sFVyn-245" value="" style="noEdgeStyle=1;strokeColor=#028090;fontColor=#E4FDE1;sketch=1;labelBackgroundColor=#114B5F;" parent="1" source="Iy7pLN3KeixTR69sFVyn-208" target="Iy7pLN3KeixTR69sFVyn-124" edge="1">
          <mxGeometry x="-520" y="-40" as="geometry" />
        </mxCell>
        <mxCell id="Iy7pLN3KeixTR69sFVyn-247" value="" style="noEdgeStyle=1;strokeColor=#028090;fontColor=#E4FDE1;sketch=1;labelBackgroundColor=#114B5F;" parent="1" source="Iy7pLN3KeixTR69sFVyn-210" target="Iy7pLN3KeixTR69sFVyn-100" edge="1">
          <mxGeometry x="-520" y="-40" as="geometry" />
        </mxCell>
        <mxCell id="Iy7pLN3KeixTR69sFVyn-249" value="" style="noEdgeStyle=1;strokeColor=#028090;fontColor=#E4FDE1;sketch=1;labelBackgroundColor=#114B5F;" parent="1" source="Iy7pLN3KeixTR69sFVyn-212" target="Iy7pLN3KeixTR69sFVyn-110" edge="1">
          <mxGeometry x="-520" y="-40" as="geometry" />
        </mxCell>
        <mxCell id="Iy7pLN3KeixTR69sFVyn-251" value="" style="noEdgeStyle=1;strokeColor=#028090;fontColor=#E4FDE1;sketch=1;labelBackgroundColor=#114B5F;" parent="1" source="Iy7pLN3KeixTR69sFVyn-214" target="Iy7pLN3KeixTR69sFVyn-98" edge="1">
          <mxGeometry x="-520" y="-40" as="geometry" />
        </mxCell>
        <mxCell id="Iy7pLN3KeixTR69sFVyn-253" value="" style="noEdgeStyle=1;strokeColor=#028090;fontColor=#E4FDE1;sketch=1;labelBackgroundColor=#114B5F;" parent="1" source="Iy7pLN3KeixTR69sFVyn-218" target="Iy7pLN3KeixTR69sFVyn-142" edge="1">
          <mxGeometry x="-520" y="-40" as="geometry" />
        </mxCell>
        <mxCell id="Iy7pLN3KeixTR69sFVyn-255" value="" style="noEdgeStyle=1;strokeColor=#028090;fontColor=#E4FDE1;sketch=1;labelBackgroundColor=#114B5F;" parent="1" source="Iy7pLN3KeixTR69sFVyn-220" target="Iy7pLN3KeixTR69sFVyn-140" edge="1">
          <mxGeometry x="-520" y="-40" as="geometry" />
        </mxCell>
        <mxCell id="Iy7pLN3KeixTR69sFVyn-256" value="" style="noEdgeStyle=1;strokeColor=#028090;fontColor=#E4FDE1;sketch=1;labelBackgroundColor=#114B5F;" parent="1" source="Iy7pLN3KeixTR69sFVyn-222" target="Iy7pLN3KeixTR69sFVyn-124" edge="1">
          <mxGeometry x="-520" y="-40" as="geometry" />
        </mxCell>
        <mxCell id="Iy7pLN3KeixTR69sFVyn-257" value="" style="noEdgeStyle=1;strokeColor=#028090;fontColor=#E4FDE1;sketch=1;labelBackgroundColor=#114B5F;" parent="1" source="Iy7pLN3KeixTR69sFVyn-224" target="Iy7pLN3KeixTR69sFVyn-150" edge="1">
          <mxGeometry x="-520" y="-40" as="geometry" />
        </mxCell>
        <mxCell id="Iy7pLN3KeixTR69sFVyn-258" value="4.7k_1" style="whiteSpace=wrap;html=1;fillColor=#F45B69;strokeColor=#028090;fontColor=#E4FDE1;sketch=1;" parent="1" vertex="1">
          <mxGeometry x="-118" y="718" width="80" height="30" as="geometry" />
        </mxCell>
        <mxCell id="Iy7pLN3KeixTR69sFVyn-260" value="" style="noEdgeStyle=1;strokeColor=#028090;fontColor=#E4FDE1;sketch=1;labelBackgroundColor=#114B5F;" parent="1" source="Iy7pLN3KeixTR69sFVyn-258" target="Iy7pLN3KeixTR69sFVyn-96" edge="1">
          <mxGeometry x="-520" y="-40" as="geometry" />
        </mxCell>
        <mxCell id="Iy7pLN3KeixTR69sFVyn-261" value="4.7k_2" style="whiteSpace=wrap;html=1;fillColor=#F45B69;strokeColor=#028090;fontColor=#E4FDE1;sketch=1;" parent="1" vertex="1">
          <mxGeometry x="-158" y="638" width="80" height="30" as="geometry" />
        </mxCell>
        <mxCell id="Iy7pLN3KeixTR69sFVyn-262" value="" style="noEdgeStyle=1;strokeColor=#028090;fontColor=#E4FDE1;sketch=1;labelBackgroundColor=#114B5F;" parent="1" source="Iy7pLN3KeixTR69sFVyn-261" target="Iy7pLN3KeixTR69sFVyn-124" edge="1">
          <mxGeometry x="-520" y="-40" as="geometry" />
        </mxCell>
        <mxCell id="Iy7pLN3KeixTR69sFVyn-263" value="R1_10k" style="whiteSpace=wrap;html=1;fillColor=#F45B69;strokeColor=#028090;fontColor=#E4FDE1;sketch=1;" parent="1" vertex="1">
          <mxGeometry x="-668" y="708" width="80" height="30" as="geometry" />
        </mxCell>
        <mxCell id="Iy7pLN3KeixTR69sFVyn-264" value="" style="noEdgeStyle=1;strokeColor=#028090;fontColor=#E4FDE1;sketch=1;labelBackgroundColor=#114B5F;" parent="1" source="Iy7pLN3KeixTR69sFVyn-263" target="Iy7pLN3KeixTR69sFVyn-150" edge="1">
          <mxGeometry x="-520" y="-40" as="geometry" />
        </mxCell>
        <mxCell id="Iy7pLN3KeixTR69sFVyn-265" value="R2_10k" style="whiteSpace=wrap;html=1;fillColor=#F45B69;strokeColor=#028090;fontColor=#E4FDE1;sketch=1;" parent="1" vertex="1">
          <mxGeometry x="-708" y="848" width="80" height="30" as="geometry" />
        </mxCell>
        <mxCell id="Iy7pLN3KeixTR69sFVyn-266" value="" style="noEdgeStyle=1;strokeColor=#028090;fontColor=#E4FDE1;sketch=1;labelBackgroundColor=#114B5F;" parent="1" source="Iy7pLN3KeixTR69sFVyn-265" target="Iy7pLN3KeixTR69sFVyn-150" edge="1">
          <mxGeometry x="-520" y="-40" as="geometry" />
        </mxCell>
        <mxCell id="Iy7pLN3KeixTR69sFVyn-267" value="" style="noEdgeStyle=1;strokeColor=#028090;fontColor=#E4FDE1;sketch=1;labelBackgroundColor=#114B5F;" parent="1" source="Iy7pLN3KeixTR69sFVyn-216" target="Iy7pLN3KeixTR69sFVyn-258" edge="1">
          <mxGeometry x="-520" y="-40" as="geometry" />
        </mxCell>
        <mxCell id="Iy7pLN3KeixTR69sFVyn-268" value="" style="noEdgeStyle=1;strokeColor=#028090;fontColor=#E4FDE1;sketch=1;labelBackgroundColor=#114B5F;" parent="1" source="Iy7pLN3KeixTR69sFVyn-216" target="Iy7pLN3KeixTR69sFVyn-261" edge="1">
          <mxGeometry x="-520" y="-40" as="geometry" />
        </mxCell>
        <mxCell id="Iy7pLN3KeixTR69sFVyn-269" value="" style="noEdgeStyle=1;strokeColor=#028090;fontColor=#E4FDE1;sketch=1;labelBackgroundColor=#114B5F;" parent="1" source="Iy7pLN3KeixTR69sFVyn-218" target="Iy7pLN3KeixTR69sFVyn-263" edge="1">
          <mxGeometry x="-520" y="-40" as="geometry" />
        </mxCell>
        <mxCell id="Iy7pLN3KeixTR69sFVyn-270" value="" style="noEdgeStyle=1;strokeColor=#028090;fontColor=#E4FDE1;sketch=1;labelBackgroundColor=#114B5F;" parent="1" source="Iy7pLN3KeixTR69sFVyn-220" target="Iy7pLN3KeixTR69sFVyn-265" edge="1">
          <mxGeometry x="-520" y="-40" as="geometry" />
        </mxCell>
        <mxCell id="Iy7pLN3KeixTR69sFVyn-271" value="" style="noEdgeStyle=1;strokeColor=#028090;fontColor=#E4FDE1;sketch=1;labelBackgroundColor=#114B5F;" parent="1" source="v3TkLxO8rTcV8y7XoOtQ-2" target="Iy7pLN3KeixTR69sFVyn-132" edge="1">
          <mxGeometry x="-520" y="-40" as="geometry" />
        </mxCell>
        <mxCell id="Iy7pLN3KeixTR69sFVyn-272" value="" style="noEdgeStyle=1;strokeColor=#028090;fontColor=#E4FDE1;sketch=1;labelBackgroundColor=#114B5F;" parent="1" source="v3TkLxO8rTcV8y7XoOtQ-2" target="Iy7pLN3KeixTR69sFVyn-134" edge="1">
          <mxGeometry x="-520" y="-40" as="geometry" />
        </mxCell>
        <mxCell id="Iy7pLN3KeixTR69sFVyn-273" value="" style="noEdgeStyle=1;strokeColor=#028090;fontColor=#E4FDE1;sketch=1;labelBackgroundColor=#114B5F;" parent="1" source="v3TkLxO8rTcV8y7XoOtQ-2" target="Iy7pLN3KeixTR69sFVyn-136" edge="1">
          <mxGeometry x="-520" y="-40" as="geometry" />
        </mxCell>
        <mxCell id="Iy7pLN3KeixTR69sFVyn-274" value="" style="noEdgeStyle=1;strokeColor=#028090;fontColor=#E4FDE1;sketch=1;labelBackgroundColor=#114B5F;" parent="1" source="v3TkLxO8rTcV8y7XoOtQ-2" target="Iy7pLN3KeixTR69sFVyn-138" edge="1">
          <mxGeometry x="-520" y="-40" as="geometry" />
        </mxCell>
        <mxCell id="Iy7pLN3KeixTR69sFVyn-275" value="" style="noEdgeStyle=1;strokeColor=#028090;fontColor=#E4FDE1;sketch=1;labelBackgroundColor=#114B5F;" parent="1" source="v3TkLxO8rTcV8y7XoOtQ-2" target="Iy7pLN3KeixTR69sFVyn-102" edge="1">
          <mxGeometry x="-520" y="-40" as="geometry" />
        </mxCell>
        <mxCell id="Iy7pLN3KeixTR69sFVyn-276" value="" style="noEdgeStyle=1;strokeColor=#028090;fontColor=#E4FDE1;sketch=1;labelBackgroundColor=#114B5F;exitX=0.7;exitY=0.972;exitDx=0;exitDy=0;exitPerimeter=0;" parent="1" source="v3TkLxO8rTcV8y7XoOtQ-2" target="Iy7pLN3KeixTR69sFVyn-104" edge="1">
          <mxGeometry x="-520" y="-40" as="geometry" />
        </mxCell>
        <mxCell id="Iy7pLN3KeixTR69sFVyn-277" value="" style="noEdgeStyle=1;strokeColor=#028090;fontColor=#E4FDE1;sketch=1;labelBackgroundColor=#114B5F;" parent="1" source="v3TkLxO8rTcV8y7XoOtQ-2" target="Iy7pLN3KeixTR69sFVyn-106" edge="1">
          <mxGeometry x="-520" y="-40" as="geometry" />
        </mxCell>
        <mxCell id="Iy7pLN3KeixTR69sFVyn-278" value="" style="noEdgeStyle=1;strokeColor=#028090;fontColor=#E4FDE1;sketch=1;labelBackgroundColor=#114B5F;" parent="1" source="v3TkLxO8rTcV8y7XoOtQ-2" target="Iy7pLN3KeixTR69sFVyn-108" edge="1">
          <mxGeometry x="-520" y="-40" as="geometry" />
        </mxCell>
        <mxCell id="Iy7pLN3KeixTR69sFVyn-281" value="" style="noEdgeStyle=1;strokeColor=#028090;fontColor=#E4FDE1;sketch=1;labelBackgroundColor=#114B5F;" parent="1" source="v3TkLxO8rTcV8y7XoOtQ-2" target="Iy7pLN3KeixTR69sFVyn-100" edge="1">
          <mxGeometry x="-520" y="-40" as="geometry" />
        </mxCell>
        <mxCell id="Iy7pLN3KeixTR69sFVyn-282" value="" style="noEdgeStyle=1;strokeColor=#028090;fontColor=#E4FDE1;sketch=1;labelBackgroundColor=#114B5F;" parent="1" source="v3TkLxO8rTcV8y7XoOtQ-2" target="Iy7pLN3KeixTR69sFVyn-110" edge="1">
          <mxGeometry x="-520" y="-40" as="geometry" />
        </mxCell>
        <mxCell id="Iy7pLN3KeixTR69sFVyn-283" value="" style="noEdgeStyle=1;strokeColor=#028090;fontColor=#E4FDE1;sketch=1;labelBackgroundColor=#114B5F;" parent="1" source="v3TkLxO8rTcV8y7XoOtQ-2" target="Iy7pLN3KeixTR69sFVyn-98" edge="1">
          <mxGeometry x="-520" y="-40" as="geometry" />
        </mxCell>
        <mxCell id="Iy7pLN3KeixTR69sFVyn-284" value="" style="noEdgeStyle=1;strokeColor=#028090;fontColor=#E4FDE1;sketch=1;labelBackgroundColor=#114B5F;" parent="1" source="v3TkLxO8rTcV8y7XoOtQ-2" target="Iy7pLN3KeixTR69sFVyn-96" edge="1">
          <mxGeometry x="-520" y="-40" as="geometry" />
        </mxCell>
        <mxCell id="Iy7pLN3KeixTR69sFVyn-285" value="" style="noEdgeStyle=1;strokeColor=#028090;fontColor=#E4FDE1;sketch=1;labelBackgroundColor=#114B5F;" parent="1" source="v3TkLxO8rTcV8y7XoOtQ-2" target="Iy7pLN3KeixTR69sFVyn-142" edge="1">
          <mxGeometry x="-520" y="-40" as="geometry" />
        </mxCell>
        <mxCell id="Iy7pLN3KeixTR69sFVyn-286" value="" style="noEdgeStyle=1;strokeColor=#028090;fontColor=#E4FDE1;sketch=1;labelBackgroundColor=#114B5F;" parent="1" source="v3TkLxO8rTcV8y7XoOtQ-2" target="Iy7pLN3KeixTR69sFVyn-140" edge="1">
          <mxGeometry x="-520" y="-40" as="geometry" />
        </mxCell>
        <mxCell id="Iy7pLN3KeixTR69sFVyn-287" value="" style="strokeColor=#028090;fontColor=#E4FDE1;sketch=1;labelBackgroundColor=#114B5F;noEdgeStyle=1;" parent="1" source="v3TkLxO8rTcV8y7XoOtQ-2" target="Iy7pLN3KeixTR69sFVyn-124" edge="1">
          <mxGeometry x="-520" y="-40" as="geometry" />
        </mxCell>
        <mxCell id="Iy7pLN3KeixTR69sFVyn-288" value="" style="strokeColor=#028090;fontColor=#E4FDE1;sketch=1;labelBackgroundColor=#114B5F;noEdgeStyle=1;" parent="1" source="v3TkLxO8rTcV8y7XoOtQ-2" target="Iy7pLN3KeixTR69sFVyn-150" edge="1">
          <mxGeometry x="-520" y="-40" as="geometry" />
        </mxCell>
        <mxCell id="IyqhzcCt3ZvD6etc55AD-2" value="" style="endArrow=none;html=1;strokeColor=#028090;fillColor=#F45B69;fontColor=#E4FDE1;noEdgeStyle=1;" edge="1" parent="1" source="v3TkLxO8rTcV8y7XoOtQ-4" target="Iy7pLN3KeixTR69sFVyn-160">
          <mxGeometry width="50" height="50" relative="1" as="geometry">
            <mxPoint x="610" y="780" as="sourcePoint" />
            <mxPoint x="660" y="730" as="targetPoint" />
          </mxGeometry>
        </mxCell>
        <mxCell id="IyqhzcCt3ZvD6etc55AD-3" value="" style="endArrow=none;html=1;strokeColor=#028090;fillColor=#F45B69;fontColor=#E4FDE1;noEdgeStyle=1;" edge="1" parent="1" source="Iy7pLN3KeixTR69sFVyn-160" target="v3TkLxO8rTcV8y7XoOtQ-8">
          <mxGeometry width="50" height="50" relative="1" as="geometry">
            <mxPoint x="610" y="780" as="sourcePoint" />
            <mxPoint x="660" y="730" as="targetPoint" />
          </mxGeometry>
        </mxCell>
        <mxCell id="IyqhzcCt3ZvD6etc55AD-4" value="" style="endArrow=none;html=1;strokeColor=#028090;fillColor=#F45B69;fontColor=#E4FDE1;noEdgeStyle=1;" edge="1" parent="1" source="Iy7pLN3KeixTR69sFVyn-160" target="v3TkLxO8rTcV8y7XoOtQ-6">
          <mxGeometry width="50" height="50" relative="1" as="geometry">
            <mxPoint x="610" y="780" as="sourcePoint" />
            <mxPoint x="660" y="730" as="targetPoint" />
          </mxGeometry>
        </mxCell>
        <mxCell id="IyqhzcCt3ZvD6etc55AD-5" value="" style="endArrow=none;html=1;strokeColor=#028090;fillColor=#F45B69;fontColor=#E4FDE1;noEdgeStyle=1;" edge="1" parent="1" source="Iy7pLN3KeixTR69sFVyn-160" target="v3TkLxO8rTcV8y7XoOtQ-10">
          <mxGeometry width="50" height="50" relative="1" as="geometry">
            <mxPoint x="610" y="660" as="sourcePoint" />
            <mxPoint x="660" y="610" as="targetPoint" />
          </mxGeometry>
        </mxCell>
      </root>
    </mxGraphModel>
  </diagram>
</mxfile>
